<svg width="43" height="41" viewBox="0 0 43 41" fill="none" xmlns="http://www.w3.org/2000/svg">
<g clip-path="url(#clip0_1771_2647)">
<path fill-rule="evenodd" clip-rule="evenodd" d="M23.8286 8.94266C22.4424 8.94266 21.0698 9.21493 19.7891 9.74393C18.5085 10.2729 17.3448 11.0483 16.3647 12.0257C15.3845 13.0032 14.607 14.1636 14.0765 15.4407C13.7047 16.3358 13.4594 17.276 13.3459 18.2342C13.2567 18.9873 12.8441 19.6828 12.1655 20.0212L10.1583 21.022C9.47968 21.3604 9.03445 22.0559 9.12365 22.809C9.23715 23.7673 9.48248 24.7074 9.85427 25.6025C10.3848 26.8796 11.1623 28.04 12.1424 29.0175C13.1226 29.9949 14.2863 30.7703 15.5669 31.2993C16.8476 31.8283 18.2202 32.1006 19.6063 32.1006C20.9925 32.1006 22.3651 31.8283 23.6458 31.2993C24.9264 30.7703 26.0901 29.9949 27.0703 29.0175C28.0504 28.04 28.8279 26.8796 29.3584 25.6025C29.7302 24.7074 29.9755 23.7673 30.089 22.809C30.1782 22.0559 30.5908 21.3604 31.2695 21.022L33.2766 20.0212C33.9552 19.6828 34.4005 18.9873 34.3113 18.2342C34.1978 17.276 33.9524 16.3358 33.5806 15.4407C33.0502 14.1636 32.2726 13.0032 31.2925 12.0257C30.3123 11.0483 29.1487 10.2729 27.868 9.74393C26.5873 9.21493 25.2147 8.94266 23.8286 8.94266ZM28.7046 17.4549C28.811 17.711 28.8967 17.9745 28.9611 18.2428C29.1383 18.9802 28.6774 19.6828 27.9988 20.0212L25.9917 21.022C25.313 21.3604 24.916 22.063 24.7389 22.8004C24.6744 23.0688 24.5888 23.3322 24.4824 23.5884C24.2171 24.2269 23.8284 24.8071 23.3383 25.2959C22.8482 25.7846 22.2664 26.1723 21.6261 26.4368C20.9857 26.7013 20.2994 26.8374 19.6063 26.8374C18.9133 26.8374 18.227 26.7013 17.5866 26.4368C16.9463 26.1723 16.3645 25.7846 15.8744 25.2959C15.3843 24.8071 14.9955 24.2269 14.7303 23.5884C14.6239 23.3322 14.5383 23.0688 14.4738 22.8004C14.2967 22.063 14.7575 21.3604 15.4361 21.022L17.4432 20.0212C18.1219 19.6828 18.5189 18.9802 18.696 18.2428C18.7605 17.9745 18.8462 17.711 18.9525 17.4549C19.2178 16.8163 19.6065 16.2361 20.0966 15.7474C20.5867 15.2586 21.1685 14.871 21.8088 14.6065C22.4492 14.342 23.1355 14.2058 23.8286 14.2058C24.5217 14.2058 25.208 14.342 25.8483 14.6065C26.4886 14.871 27.0704 15.2586 27.5605 15.7474C28.0506 16.2361 28.4394 16.8163 28.7046 17.4549Z" fill="#C7C7C7"/>
<path fill-rule="evenodd" clip-rule="evenodd" d="M23.8286 0.521606C21.3335 0.521606 18.8628 1.01169 16.5576 1.96389C14.2524 2.91608 12.1579 4.31174 10.3935 6.07116C8.62926 7.83059 7.22973 9.91933 6.27489 12.2181C5.47858 14.1352 5.00457 16.1672 4.86911 18.2322C4.81948 18.989 4.3997 19.6828 3.72104 20.0212L1.71393 21.022C1.03527 21.3604 0.597253 22.0543 0.646889 22.811C0.782344 24.8761 1.25636 26.908 2.05266 28.8251C3.0075 31.1239 4.40703 33.2126 6.17135 34.9721C7.93566 36.7315 10.0302 38.1271 12.3354 39.0793C14.6405 40.0315 17.1112 40.5216 19.6063 40.5216C22.1015 40.5216 24.5721 40.0315 26.8773 39.0793C29.1825 38.1271 31.2771 36.7315 33.0414 34.9721C34.8057 33.2126 36.2052 31.1239 37.1601 28.8251C37.9564 26.908 38.4304 24.8761 38.5658 22.811C38.6155 22.0543 39.0352 21.3604 39.7139 21.022L41.721 20.0212C42.3997 19.6828 42.8377 18.989 42.7881 18.2322C42.6526 16.1672 42.1786 14.1352 41.3823 12.2181C40.4274 9.91933 39.0279 7.83059 37.2636 6.07116C35.4993 4.31174 33.4047 2.91608 31.0996 1.96389C28.7944 1.01169 26.3237 0.521606 23.8286 0.521606ZM33.2725 22.8102C33.3412 22.0549 33.7575 21.3604 34.4361 21.022L36.4432 20.0212C37.1219 19.6828 37.5634 18.9883 37.4947 18.2331C37.3698 16.8597 37.0372 15.5106 36.5063 14.2323C35.8166 12.572 34.8059 11.0635 33.5316 9.79278C32.2574 8.52208 30.7447 7.51411 29.0798 6.82641C27.415 6.13872 25.6306 5.78476 23.8286 5.78476C22.0265 5.78476 20.2422 6.13872 18.5773 6.82641C16.9124 7.51411 15.3997 8.52208 14.1255 9.79278C12.8513 11.0635 11.8405 12.572 11.1509 14.2323C10.6199 15.5106 10.2873 16.8597 10.1624 18.2331C10.0937 18.9883 9.67748 19.6828 8.99882 20.0212L6.99171 21.022C6.31305 21.3604 5.87155 22.0549 5.94023 22.8102C6.06513 24.1835 6.3977 25.5326 6.92869 26.811C7.6183 28.4712 8.62907 29.9797 9.9033 31.2504C11.1775 32.5211 12.6902 33.5291 14.3551 34.2168C16.0199 34.9045 17.8043 35.2584 19.6063 35.2584C21.4084 35.2584 23.1928 34.9045 24.8576 34.2168C26.5225 33.5291 28.0352 32.5211 29.3094 31.2504C30.5837 29.9797 31.5944 28.4712 32.284 26.811C32.815 25.5326 33.1476 24.1835 33.2725 22.8102Z" fill="#C7C7C7"/>
<path d="M42.8235 19.0401H37.5438C37.5415 19.3092 37.3835 19.5526 37.1409 19.6735L33.7391 21.3697C33.4966 21.4906 33.3418 21.734 33.3228 22.0031H38.6024C38.6191 21.7339 38.7744 21.4906 39.0169 21.3697L42.4187 19.6735C42.6612 19.5526 42.8188 19.3093 42.8235 19.0401Z" fill="#C7C7C7"/>
<path d="M0.612061 22.0031H5.89171C5.89403 21.734 6.05205 21.4906 6.29459 21.3697L9.6964 19.6735C9.93894 19.5526 10.0937 19.3092 10.1128 19.0401H4.83311C4.81639 19.3093 4.66115 19.5526 4.41862 19.6735L1.01681 21.3697C0.774281 21.4906 0.616707 21.7339 0.612061 22.0031Z" fill="#C7C7C7"/>
<path d="M13.2814 19.0401C13.2598 19.3092 13.1055 19.5526 12.863 19.6735L9.46116 21.3697C9.2186 21.4906 9.06009 21.7341 9.0603 22.0031H14.3469C14.3356 21.7346 14.4963 21.4907 14.7389 21.3697L18.1407 19.6735C18.3834 19.5525 18.5357 19.3086 18.5679 19.0401H13.2814Z" fill="#C7C7C7"/>
<path d="M29.0885 19.0401C29.0997 19.3086 28.9391 19.5525 28.6964 19.6735L25.2946 21.3697C25.0519 21.4907 24.8997 21.7346 24.8674 22.0031H30.154C30.1755 21.7341 30.3298 21.4906 30.5724 21.3697L33.9742 19.6735C34.2167 19.5526 34.3752 19.3092 34.375 19.0401H29.0885Z" fill="#C7C7C7"/>
</g>
<defs>
<clipPath id="clip0_1771_2647">
<rect width="43" height="41" fill="white"/>
</clipPath>
</defs>
</svg>
