<svg width="71" height="56" viewBox="0 0 71 56" fill="none" xmlns="http://www.w3.org/2000/svg">
<g filter="url(#filter0_ii_373_49)">
<rect width="71" height="56" rx="9" fill="white" fill-opacity="0.024"/>
<path d="M44.7499 22.3334V19.2501C44.7499 18.4323 44.4251 17.6481 43.8468 17.0698C43.2686 16.4916 42.4843 16.1667 41.6666 16.1667H23.1666C22.3488 16.1667 21.5646 16.4916 20.9863 17.0698C20.4081 17.6481 20.0833 18.4323 20.0833 19.2501V30.0417C20.0833 30.8595 20.4081 31.6438 20.9863 32.222C21.5646 32.8002 22.3488 33.1251 23.1666 33.1251H35.4999" stroke="white" stroke-width="1.28027" stroke-linecap="round" stroke-linejoin="round"/>
<path d="M32.4167 39.2931V33.1868V38.0441" stroke="white" stroke-width="1.28027" stroke-linecap="round" stroke-linejoin="round"/>
<path d="M27.7917 39.2917H35.5017" stroke="white" stroke-width="1.28027" stroke-linecap="round" stroke-linejoin="round"/>
<path d="M47.8334 28.5H44.7501C43.0472 28.5 41.6667 29.8805 41.6667 31.5833V40.8333C41.6667 42.5362 43.0472 43.9167 44.7501 43.9167H47.8334C49.5363 43.9167 50.9167 42.5362 50.9167 40.8333V31.5833C50.9167 29.8805 49.5363 28.5 47.8334 28.5Z" stroke="white" stroke-width="1.28027" stroke-linecap="round" stroke-linejoin="round"/>
</g>
<defs>
<filter id="filter0_ii_373_49" x="0" y="0" width="71" height="56" filterUnits="userSpaceOnUse" color-interpolation-filters="sRGB">
<feFlood flood-opacity="0" result="BackgroundImageFix"/>
<feBlend mode="normal" in="SourceGraphic" in2="BackgroundImageFix" result="shape"/>
<feColorMatrix in="SourceAlpha" type="matrix" values="0 0 0 0 0 0 0 0 0 0 0 0 0 0 0 0 0 0 127 0" result="hardAlpha"/>
<feOffset/>
<feGaussianBlur stdDeviation="13.66"/>
<feComposite in2="hardAlpha" operator="arithmetic" k2="-1" k3="1"/>
<feColorMatrix type="matrix" values="0 0 0 0 1 0 0 0 0 1 0 0 0 0 1 0 0 0 0.1 0"/>
<feBlend mode="normal" in2="shape" result="effect1_innerShadow_373_49"/>
<feColorMatrix in="SourceAlpha" type="matrix" values="0 0 0 0 0 0 0 0 0 0 0 0 0 0 0 0 0 0 127 0" result="hardAlpha"/>
<feMorphology radius="1" operator="erode" in="SourceAlpha" result="effect2_innerShadow_373_49"/>
<feOffset/>
<feComposite in2="hardAlpha" operator="arithmetic" k2="-1" k3="1"/>
<feColorMatrix type="matrix" values="0 0 0 0 1 0 0 0 0 1 0 0 0 0 1 0 0 0 0.075 0"/>
<feBlend mode="normal" in2="effect1_innerShadow_373_49" result="effect2_innerShadow_373_49"/>
</filter>
</defs>
</svg>
