<svg width="167" height="52" viewBox="0 0 167 52" fill="none" xmlns="http://www.w3.org/2000/svg">
<path d="M41.7351 36V16.0364H49.6114C51.1256 16.0364 52.4155 16.3255 53.4813 16.9039C54.5471 17.4758 55.3594 18.2719 55.9183 19.2922C56.4836 20.3059 56.7663 21.4757 56.7663 22.8014C56.7663 24.1271 56.4804 25.2968 55.9085 26.3106C55.3366 27.3244 54.5081 28.114 53.4228 28.6793C52.3441 29.2447 51.0378 29.5274 49.5042 29.5274H44.484V26.1449H48.8218C49.6341 26.1449 50.3035 26.0052 50.8299 25.7257C51.3628 25.4398 51.7592 25.0466 52.0191 24.5463C52.2856 24.0394 52.4188 23.4577 52.4188 22.8014C52.4188 22.1385 52.2856 21.5602 52.0191 21.0663C51.7592 20.5659 51.3628 20.1792 50.8299 19.9063C50.297 19.6268 49.6211 19.4871 48.8023 19.4871H45.9559V36H41.7351ZM59.4299 36V21.0273H63.5825V36H59.4299ZM61.516 19.0972C60.8986 19.0972 60.369 18.8925 59.9271 18.4831C59.4917 18.0672 59.274 17.57 59.274 16.9917C59.274 16.4198 59.4917 15.9291 59.9271 15.5197C60.369 15.1038 60.8986 14.8959 61.516 14.8959C62.1333 14.8959 62.6597 15.1038 63.0951 15.5197C63.537 15.9291 63.758 16.4198 63.758 16.9917C63.758 17.57 63.537 18.0672 63.0951 18.4831C62.6597 18.8925 62.1333 19.0972 61.516 19.0972ZM70.3792 21.0273L73.1281 26.2619L75.9453 21.0273H80.2051L75.8673 28.5136L80.3221 36H76.0817L73.1281 30.8239L70.2233 36H65.9342L70.3792 28.5136L66.0902 21.0273H70.3792ZM88.9587 36.2924C87.4185 36.2924 86.0928 35.9805 84.9815 35.3566C83.8768 34.7263 83.0255 33.836 82.4276 32.6857C81.8297 31.529 81.5308 30.161 81.5308 28.5819C81.5308 27.0417 81.8297 25.69 82.4276 24.5268C83.0255 23.3635 83.867 22.457 84.9523 21.8071C86.0441 21.1572 87.3243 20.8323 88.793 20.8323C89.7807 20.8323 90.7003 20.9915 91.5516 21.31C92.4094 21.6219 93.1568 22.093 93.7936 22.7234C94.437 23.3538 94.9374 24.1466 95.2948 25.1019C95.6522 26.0507 95.8309 27.1619 95.8309 28.4357V29.5762H83.1879V27.0027H91.922C91.922 26.4048 91.7921 25.8752 91.5321 25.4138C91.2722 24.9524 90.9115 24.5917 90.4501 24.3318C89.9952 24.0654 89.4656 23.9321 88.8612 23.9321C88.2308 23.9321 87.672 24.0784 87.1846 24.3708C86.7037 24.6567 86.3267 25.0434 86.0538 25.5308C85.7809 26.0117 85.6411 26.5478 85.6347 27.1392V29.5859C85.6347 30.3267 85.7711 30.9668 86.0441 31.5062C86.3235 32.0456 86.7167 32.4615 87.2236 32.754C87.7304 33.0464 88.3316 33.1926 89.0269 33.1926C89.4883 33.1926 89.9107 33.1276 90.2941 32.9977C90.6775 32.8677 91.0057 32.6727 91.2787 32.4128C91.5516 32.1528 91.7596 31.8344 91.9025 31.4575L95.7432 31.7109C95.5482 32.6337 95.1486 33.4396 94.5442 34.1284C93.9463 34.8108 93.173 35.3436 92.2242 35.7271C91.2819 36.104 90.1934 36.2924 88.9587 36.2924ZM102.693 16.0364V36H98.5408V16.0364H102.693Z" fill="white"/>
<path d="M109.707 36V16.3636H113.858V24.4656H122.286V16.3636H126.428V36H122.286V27.8885H113.858V36H109.707ZM129.775 36V21.2727H133.859V36H129.775ZM131.826 19.3743C131.219 19.3743 130.698 19.1729 130.263 18.7702C129.835 18.3611 129.621 17.8722 129.621 17.3033C129.621 16.7408 129.835 16.2582 130.263 15.8555C130.698 15.4464 131.219 15.2418 131.826 15.2418C132.434 15.2418 132.951 15.4464 133.38 15.8555C133.814 16.2582 134.032 16.7408 134.032 17.3033C134.032 17.8722 133.814 18.3611 133.38 18.7702C132.951 19.1729 132.434 19.3743 131.826 19.3743ZM150.861 21.2727L145.712 36H141.11L135.961 21.2727H140.276L143.334 31.81H143.488L146.537 21.2727H150.861ZM159.188 36.2876C157.673 36.2876 156.369 35.9808 155.276 35.3672C154.19 34.7472 153.352 33.8714 152.764 32.7401C152.176 31.6023 151.882 30.2567 151.882 28.7035C151.882 27.1886 152.176 25.859 152.764 24.7148C153.352 23.5707 154.18 22.679 155.248 22.0398C156.321 21.4006 157.581 21.081 159.025 21.081C159.997 21.081 160.901 21.2376 161.739 21.5508C162.582 21.8576 163.318 22.321 163.944 22.9411C164.577 23.5611 165.069 24.3409 165.421 25.2805C165.772 26.2138 165.948 27.3068 165.948 28.5597V29.6815H153.512V27.1502H162.103C162.103 26.5621 161.975 26.0412 161.72 25.5874C161.464 25.1335 161.109 24.7788 160.655 24.5231C160.208 24.261 159.687 24.13 159.092 24.13C158.472 24.13 157.923 24.2738 157.443 24.5614C156.97 24.8427 156.6 25.223 156.331 25.7024C156.063 26.1754 155.925 26.7028 155.919 27.2844V29.6911C155.919 30.4197 156.053 31.0494 156.321 31.5799C156.596 32.1104 156.983 32.5195 157.482 32.8072C157.98 33.0948 158.571 33.2386 159.255 33.2386C159.709 33.2386 160.125 33.1747 160.502 33.0469C160.879 32.919 161.202 32.7273 161.47 32.4716C161.739 32.2159 161.943 31.9027 162.084 31.532L165.862 31.7812C165.67 32.6889 165.277 33.4815 164.682 34.1591C164.094 34.8303 163.334 35.3544 162.4 35.7315C161.473 36.1023 160.403 36.2876 159.188 36.2876Z" fill="white"/>
<path d="M9.33447 11L17.085 17.6217C17.5452 18.0148 17.8104 18.5916 17.8104 19.1992V24.1897L10.0598 17.568C9.59967 17.1749 9.33447 16.598 9.33447 15.9904V11Z" fill="#575659"/>
<path d="M9.33447 41L17.085 34.3783C17.5452 33.9852 17.8104 33.4083 17.8104 32.8007V27.8103L10.0598 34.432C9.59967 34.8251 9.33447 35.402 9.33447 36.0095V41Z" fill="#575659"/>
<path d="M0.0878906 17.9827L7.7331 24.4778C8.10375 24.7927 8.5731 24.9654 9.05812 24.9654H15.2236L7.59727 18.4718C7.22635 18.156 6.75628 17.9827 6.27049 17.9827H0.0878906Z" fill="#575659"/>
<path d="M0.0878906 34.0172L7.68607 27.5258C8.0574 27.2086 8.52847 27.0344 9.01545 27.0344H15.242L7.59682 33.5295C7.22615 33.8444 6.75678 34.0172 6.27177 34.0172H0.0878906Z" fill="#575659"/>
<path d="M28.3413 11L20.5907 17.6217C20.1306 18.0148 19.8654 18.5916 19.8654 19.1992V24.1897L27.6159 17.568C28.0761 17.1749 28.3413 16.598 28.3413 15.9904V11Z" fill="#575659"/>
<path d="M28.3413 41L20.5907 34.3783C20.1306 33.9852 19.8654 33.4083 19.8654 32.8007V27.8103L27.6159 34.432C28.0761 34.8251 28.3413 35.402 28.3413 36.0095V41Z" fill="#575659"/>
<path d="M37.5879 17.9827L29.9427 24.4778C29.572 24.7927 29.1026 24.9654 28.6176 24.9654H22.452L30.0785 18.4718C30.4493 18.156 30.9195 17.9827 31.4052 17.9827H37.5879Z" fill="#575659"/>
<path d="M37.5878 34.0172L29.9897 27.5258C29.6183 27.2086 29.1472 27.0344 28.6602 27.0344H22.4337L30.0788 33.5295C30.4496 33.8444 30.9189 34.0172 31.4039 34.0172H37.5878Z" fill="#575659"/>
</svg>
