<svg width="557" height="146" viewBox="0 0 557 146" fill="none" xmlns="http://www.w3.org/2000/svg">
<g clip-path="url(#clip0_64_47)">
<path d="M169.157 43.1399C174.342 43.1399 178.83 44.0031 182.621 45.7293C186.468 47.4555 189.423 49.9058 191.485 53.0799C193.549 56.254 194.58 60.0128 194.58 64.3564C194.58 68.6441 193.549 72.403 191.485 75.6328C189.423 78.8069 186.468 81.2571 182.621 82.984C178.83 84.6539 174.342 85.4895 169.157 85.4895H157.365V101.611H143.818V43.1399H169.157ZM168.405 74.4634C172.474 74.4634 175.569 73.6002 177.687 71.874C179.806 70.092 180.865 67.5861 180.865 64.3564C180.865 61.0708 179.806 58.565 177.687 56.8388C175.569 55.0567 172.474 54.1658 168.405 54.1658H157.365V74.4634H168.405Z" fill="#010101"/>
<path d="M211.612 62.6022C213.172 60.4304 215.264 58.7877 217.884 57.6739C220.559 56.5602 223.625 56.0034 227.082 56.0034V68.0317C225.633 67.9202 224.657 67.8645 224.155 67.8645C220.42 67.8645 217.493 68.9227 215.375 71.0387C213.256 73.099 212.196 76.2175 212.196 80.3937V101.611H199.151V56.6716H211.612V62.6022Z" fill="#010101"/>
<path d="M251.658 102.278C246.92 102.278 242.655 101.305 238.864 99.3549C235.128 97.3508 232.202 94.5933 230.082 91.0852C227.964 87.5771 226.905 83.5954 226.905 79.141C226.905 74.6861 227.964 70.7046 230.082 67.1963C232.202 63.6881 235.128 60.9595 238.864 59.0105C242.655 57.0057 246.92 56.0034 251.658 56.0034C256.397 56.0034 260.634 57.0057 264.37 59.0105C268.105 60.9595 271.032 63.6881 273.151 67.1963C275.269 70.7046 276.329 74.6861 276.329 79.141C276.329 83.5954 275.269 87.5771 273.151 91.0852C271.032 94.5933 268.105 97.3508 264.37 99.3549C260.634 101.305 256.397 102.278 251.658 102.278ZM251.658 91.5866C255.004 91.5866 257.736 90.4738 259.854 88.2456C262.029 85.963 263.115 82.9283 263.115 79.141C263.115 75.3544 262.029 72.3473 259.854 70.1198C257.736 67.8367 255.004 66.6951 251.658 66.6951C248.313 66.6951 245.554 67.8367 243.38 70.1198C241.205 72.3473 240.117 75.3544 240.117 79.141C240.117 82.9283 241.205 85.963 243.38 88.2456C245.554 90.4738 248.313 91.5866 251.658 91.5866Z" fill="#010101"/>
<path d="M335.477 43.1399V101.611H324.354L295.167 66.1105V101.611H281.788V43.1399H292.994L322.096 78.6399V43.1399H335.477Z" fill="#010101"/>
<path d="M362.373 56.0034C369.342 56.0034 374.693 57.6739 378.428 61.0152C382.164 64.3007 384.032 69.2846 384.032 75.9669V101.611H371.822V96.0139C369.37 100.19 364.798 102.278 358.108 102.278C354.651 102.278 351.64 101.695 349.075 100.525C346.567 99.3549 344.643 97.7408 343.306 95.6796C341.967 93.6199 341.298 91.2802 341.298 88.6634C341.298 84.4867 342.86 81.2014 345.981 78.8069C349.159 76.4125 354.038 75.2152 360.616 75.2152H370.986C370.986 72.3751 370.123 70.2034 368.394 68.6999C366.665 67.1406 364.073 66.361 360.616 66.361C358.219 66.361 355.849 66.7508 353.508 67.5304C351.223 68.2543 349.271 69.2568 347.653 70.5375L342.971 61.4328C345.424 59.7065 348.35 58.3701 351.751 57.4234C355.208 56.4768 358.749 56.0034 362.373 56.0034ZM361.369 93.5085C363.599 93.5085 365.579 93.0071 367.306 92.0044C369.035 90.946 370.261 89.4154 370.986 87.41V82.8169H362.038C356.686 82.8169 354.01 84.5703 354.01 88.0784C354.01 89.7496 354.651 91.0852 355.933 92.0879C357.271 93.035 359.082 93.5085 361.369 93.5085Z" fill="#010101"/>
<path d="M420.676 99.4385C419.395 100.385 417.805 101.11 415.91 101.611C414.07 102.055 412.119 102.278 410.056 102.278C404.704 102.278 400.551 100.915 397.596 98.1864C394.696 95.4568 393.247 91.4473 393.247 86.1579V67.6975H386.306V57.6739H393.247V46.7316H406.292V57.6739H417.498V67.6975H406.292V85.9908C406.292 87.8835 406.766 89.3597 407.714 90.4181C408.718 91.4195 410.111 91.9208 411.896 91.9208C413.958 91.9208 415.715 91.3638 417.164 90.251L420.676 99.4385Z" fill="#010101"/>
<path d="M469.145 56.6716V101.611H456.768V96.2646C455.04 98.2129 452.977 99.717 450.58 100.775C448.182 101.778 445.59 102.278 442.802 102.278C436.892 102.278 432.21 100.58 428.752 97.1837C425.295 93.787 423.568 88.7469 423.568 82.0649V56.6716H436.613V80.143C436.613 87.3821 439.653 91.0017 445.729 91.0017C448.851 91.0017 451.361 90.0003 453.255 87.9949C455.15 85.9351 456.098 82.9005 456.098 78.8904V56.6716H469.145Z" fill="#010101"/>
<path d="M489.51 62.6022C491.07 60.4304 493.162 58.7877 495.782 57.6739C498.458 56.5602 501.525 56.0034 504.981 56.0034V68.0317C503.531 67.9202 502.555 67.8645 502.055 67.8645C498.318 67.8645 495.391 68.9227 493.273 71.0387C491.154 73.099 490.096 76.2175 490.096 80.3937V101.611H477.049V56.6716H489.51V62.6022Z" fill="#010101"/>
<path d="M552.221 79.3088C552.221 79.4745 552.137 80.6444 551.97 82.8169H517.933C518.547 85.6009 519.995 87.7999 522.282 89.4154C524.567 91.0295 527.41 91.8373 530.811 91.8373C533.154 91.8373 535.216 91.503 537 90.8345C538.84 90.1117 540.541 88.9976 542.101 87.4935L549.043 95.0111C544.806 99.8562 538.616 102.278 530.476 102.278C525.404 102.278 520.916 101.305 517.013 99.3549C513.11 97.3508 510.1 94.5933 507.981 91.0852C505.863 87.5771 504.803 83.5954 504.803 79.141C504.803 74.7418 505.835 70.7882 507.897 67.2799C510.016 63.7159 512.887 60.9595 516.511 59.0105C520.191 57.0057 524.288 56.0034 528.805 56.0034C533.209 56.0034 537.196 56.95 540.764 58.8434C544.332 60.7367 547.119 63.4654 549.127 67.0293C551.189 70.5375 552.221 74.6304 552.221 79.3088ZM528.888 65.8599C525.934 65.8599 523.452 66.6951 521.446 68.3658C519.438 70.0364 518.212 72.3195 517.766 75.2152H539.927C539.481 72.3751 538.254 70.1198 536.247 68.4493C534.24 66.723 531.787 65.8599 528.888 65.8599Z" fill="#010101"/>
<path fill-rule="evenodd" clip-rule="evenodd" d="M69.5221 10.5772C67.5344 9.42866 65.0836 9.42866 63.0959 10.5772C48.9772 18.7348 39.4548 33.9977 39.4548 51.4898C39.4548 53.9828 39.6483 56.4306 40.0209 58.819C30.3017 55.5221 19.7782 56.7218 11.1827 61.669C9.19299 62.8142 7.96753 64.9341 7.96948 67.2277C7.97966 79.3283 14.273 91.1214 25.5441 97.621C31.0735 100.81 37.1087 102.325 43.0619 102.328C42.1561 104.892 41.6634 107.65 41.6634 110.523C41.6634 124.118 52.6972 135.138 66.3081 135.138C79.9194 135.138 90.9526 124.118 90.9526 110.523C90.9526 107.643 90.4576 104.88 89.5485 102.312C95.1467 102.135 100.785 100.617 105.978 97.621C117.249 91.1214 123.542 79.3283 123.552 67.2282C123.554 64.9345 122.329 62.8147 120.339 61.6695C112.082 56.9172 102.046 55.623 92.6537 58.4508C92.9897 56.1792 93.1626 53.8548 93.1626 51.4898C93.1626 33.9977 83.6409 18.7348 69.5221 10.5772ZM52.2886 51.4898C52.2886 40.1309 57.795 30.0506 66.3089 23.7761C74.823 30.0506 80.3294 40.1309 80.3294 51.4898C80.3294 62.8486 74.823 72.9288 66.3089 79.2034C57.795 72.9288 52.2886 62.8486 52.2886 51.4898ZM91.6163 72.7762C97.5421 69.3589 104.39 68.9614 110.371 71.1237C109.256 77.3788 105.487 83.1024 99.5611 86.5201C93.6353 89.9377 86.7878 90.3346 80.8062 88.1731C81.9217 81.9173 85.6905 76.1935 91.6163 72.7762ZM21.1509 71.1232C27.1322 68.9608 33.9793 69.3585 39.9053 72.7758C45.8314 76.1931 49.5996 81.9173 50.7155 88.1718C44.7341 90.3346 37.8869 89.9377 31.9609 86.5201C26.035 83.1024 22.2666 77.3784 21.1509 71.1232ZM54.4971 110.523C54.4971 104.008 59.7851 98.7254 66.3081 98.7254C72.8311 98.7254 78.1194 104.008 78.1194 110.523C78.1194 117.038 72.8311 122.32 66.3081 122.32C59.7851 122.32 54.4971 117.038 54.4971 110.523Z" fill="#010101"/>
</g>
<defs>
<clipPath id="clip0_64_47">
<rect width="557" height="146" fill="white"/>
</clipPath>
</defs>
</svg>
