<svg width="447" height="77" viewBox="0 0 447 77" fill="none" xmlns="http://www.w3.org/2000/svg">
<g clip-path="url(#clip0_1_28)">
<path d="M123.293 64.158V13.3987H135.379V64.158H123.293ZM135.379 34.7062H131.508C131.822 29.5925 132.767 25.3625 134.34 22.0164C135.914 18.6704 137.991 16.1766 140.572 14.5351C143.153 12.8305 146.111 11.9782 149.447 11.9782C152.595 11.9782 155.333 12.6727 157.662 14.0616C160.054 15.3874 161.911 17.4076 163.233 20.1224C164.556 22.8372 165.216 26.2464 165.216 30.3501V64.158H153.13V32.8123C153.13 30.4763 152.847 28.5192 152.28 26.9408C151.714 25.2994 150.833 24.0682 149.637 23.2475C148.441 22.4268 146.961 22.0164 145.198 22.0164C143.687 22.0164 142.335 22.3636 141.139 23.0581C139.943 23.6895 138.904 24.6049 138.022 25.8044C137.141 26.9408 136.48 28.2982 136.04 29.8765C135.599 31.3917 135.379 33.0016 135.379 34.7062ZM165.216 34.7062H159.646C159.96 29.5925 160.936 25.3625 162.572 22.0164C164.272 18.6704 166.507 16.1766 169.277 14.5351C172.046 12.8305 175.194 11.9782 178.719 11.9782C181.929 11.9782 184.762 12.6727 187.217 14.0616C189.735 15.3874 191.655 17.4076 192.977 20.1224C194.361 22.8372 195.054 26.2464 195.054 30.3501V64.158H182.968V32.8123C182.968 30.4763 182.685 28.5192 182.118 26.9408C181.552 25.2994 180.67 24.0682 179.474 23.2475C178.341 22.4268 176.862 22.0164 175.036 22.0164C173.526 22.0164 172.173 22.3636 170.976 23.0581C169.78 23.6895 168.742 24.6049 167.86 25.8044C166.979 26.9408 166.318 28.2982 165.877 29.8765C165.437 31.3917 165.216 33.0016 165.216 34.7062Z" fill="#010101"/>
<path d="M223.375 65.5785C218.338 65.5785 213.995 64.5052 210.344 62.3587C206.756 60.2121 203.986 57.1502 202.035 53.1728C200.084 49.1322 199.108 44.3657 199.108 38.873C199.108 33.1279 200.084 28.2666 202.035 24.2892C204.05 20.2487 206.882 17.1867 210.533 15.1033C214.184 13.0199 218.464 11.9782 223.375 11.9782C228.347 11.9782 232.628 13.0831 236.216 15.2927C239.867 17.4392 242.668 20.5327 244.62 24.5734C246.571 28.5507 247.547 33.3173 247.547 38.873C247.547 44.555 246.539 49.3848 244.525 53.3622C242.573 57.3396 239.773 60.37 236.122 62.4534C232.534 64.5368 228.285 65.5785 223.375 65.5785ZM223.375 55.5403C227.151 55.5403 230.047 54.1198 232.061 51.2788C234.076 48.3747 235.083 44.2394 235.083 38.873C235.083 33.4436 234.076 29.2768 232.061 26.3726C230.047 23.4685 227.151 22.0164 223.375 22.0164C219.534 22.0164 216.607 23.4685 214.593 26.3726C212.578 29.2136 211.572 33.3804 211.572 38.873C211.572 44.1763 212.578 48.2799 214.593 51.184C216.607 54.0882 219.534 55.5403 223.375 55.5403Z" fill="#010101"/>
<path d="M251.612 64.158V13.3987H263.698V64.158H251.612ZM263.698 34.7062H259.827C260.142 29.5925 261.117 25.3625 262.754 22.0164C264.391 18.6704 266.562 16.1766 269.269 14.5351C272.039 12.8305 275.186 11.9782 278.711 11.9782C282.111 11.9782 285.069 12.6727 287.587 14.0616C290.169 15.3874 292.151 17.4076 293.536 20.1224C294.984 22.8372 295.708 26.2464 295.708 30.3501V64.158H283.621V32.8123C283.621 30.4763 283.275 28.5192 282.583 26.9408C281.954 25.2994 280.978 24.0682 279.656 23.2475C278.334 22.4268 276.634 22.0164 274.557 22.0164C272.92 22.0164 271.409 22.3636 270.025 23.0581C268.702 23.6895 267.57 24.6049 266.625 25.8044C265.681 26.9408 264.958 28.2982 264.453 29.8765C263.95 31.3917 263.698 33.0016 263.698 34.7062Z" fill="#010101"/>
<path d="M313.833 30.0659H301.652C302.219 26.278 303.446 23.0581 305.335 20.4065C307.287 17.6918 309.836 15.6083 312.984 14.1563C316.194 12.7042 319.939 11.9782 324.22 11.9782C328.879 11.9782 332.781 12.8305 335.928 14.5351C339.139 16.2397 341.531 18.6072 343.105 21.6376C344.678 24.668 345.465 28.1403 345.465 32.0547V51.7523C345.465 54.8458 345.591 57.3712 345.843 59.3283C346.158 61.2223 346.535 62.8322 346.976 64.158H334.417C333.914 62.8953 333.599 61.317 333.473 59.423C333.348 57.4659 333.285 55.5087 333.285 53.5516V32.0547C333.285 28.7717 332.466 26.278 330.829 24.5734C329.256 22.8687 326.8 22.0164 323.464 22.0164C320.569 22.0164 318.334 22.774 316.761 24.2892C315.187 25.7413 314.211 27.6669 313.833 30.0659ZM334.89 33.2857V40.7671C330.231 40.7671 326.423 41.0196 323.464 41.5246C320.506 41.9666 318.209 42.6295 316.572 43.5134C314.935 44.3973 313.77 45.4073 313.078 46.5438C312.449 47.6802 312.134 48.9113 312.134 50.2371C312.134 52.1942 312.857 53.741 314.306 54.8774C315.753 56.0138 317.673 56.582 320.066 56.582C322.52 56.582 324.755 55.9823 326.769 54.7827C328.784 53.5831 330.358 51.9417 331.491 49.8583C332.687 47.7749 333.285 45.4705 333.285 42.9451H337.912C337.66 46.9857 336.872 50.458 335.551 53.3622C334.292 56.2032 332.655 58.5391 330.641 60.37C328.689 62.1377 326.517 63.432 324.125 64.2527C321.733 65.1366 319.341 65.5785 316.949 65.5785C313.613 65.5785 310.655 65.0419 308.073 63.9686C305.555 62.8322 303.573 61.1907 302.125 59.0442C300.677 56.8346 299.953 54.1198 299.953 50.9C299.953 47.4276 300.898 44.4604 302.786 41.9982C304.737 39.4729 307.665 37.5473 311.568 36.2215C315.092 34.9588 318.68 34.1696 322.331 33.8539C326.046 33.4752 330.231 33.2857 334.89 33.2857Z" fill="#010101"/>
<path d="M396.081 31.3917H383.995C383.429 28.1088 382.201 25.7413 380.313 24.2892C378.487 22.774 376.315 22.0164 373.797 22.0164C370.02 22.0164 367.156 23.4685 365.205 26.3726C363.316 29.2136 362.372 33.3804 362.372 38.873C362.372 44.2394 363.379 48.3747 365.393 51.2788C367.408 54.1198 370.335 55.5403 374.175 55.5403C376.756 55.5403 378.928 54.8458 380.69 53.4569C382.453 52.0048 383.649 49.8267 384.278 46.9226H396.459C395.325 53.2991 392.713 58.0025 388.622 61.0329C384.53 64.0633 379.62 65.5785 373.892 65.5785C368.919 65.5785 364.639 64.5052 361.05 62.3587C357.525 60.1491 354.787 57.0555 352.836 53.0781C350.884 49.1007 349.908 44.3657 349.908 38.873C349.908 33.1279 350.884 28.2666 352.836 24.2892C354.787 20.2487 357.556 17.1867 361.144 15.1033C364.732 13.0199 368.95 11.9782 373.797 11.9782C377.637 11.9782 381.131 12.7042 384.278 14.1563C387.488 15.6083 390.133 17.7865 392.21 20.6906C394.287 23.5316 395.578 27.0987 396.081 31.3917Z" fill="#010101"/>
<path d="M422.013 65.5785C416.978 65.5785 412.634 64.5052 408.983 62.3587C405.395 60.2121 402.625 57.1502 400.674 53.1728C398.722 49.1322 397.747 44.3657 397.747 38.873C397.747 33.1279 398.722 28.2666 400.674 24.2892C402.688 20.2487 405.521 17.1867 409.172 15.1033C412.823 13.0199 417.104 11.9782 422.013 11.9782C426.987 11.9782 431.267 13.0831 434.855 15.2927C438.506 17.4392 441.308 20.5327 443.259 24.5734C445.21 28.5507 446.186 33.3173 446.186 38.873C446.186 44.555 445.179 49.3848 443.165 53.3622C441.213 57.3396 438.411 60.37 434.76 62.4534C431.172 64.5368 426.923 65.5785 422.013 65.5785ZM422.013 55.5403C425.791 55.5403 428.686 54.1198 430.701 51.2788C432.715 48.3747 433.722 44.2394 433.722 38.873C433.722 33.4436 432.715 29.2768 430.701 26.3726C428.686 23.4685 425.791 22.0164 422.013 22.0164C418.174 22.0164 415.247 23.4685 413.232 26.3726C411.218 29.2136 410.21 33.3804 410.21 38.873C410.21 44.1763 411.218 48.2799 413.232 51.184C415.247 54.0882 418.174 55.5403 422.013 55.5403Z" fill="#010101"/>
<path fill-rule="evenodd" clip-rule="evenodd" d="M11.9427 0C5.34695 0 0 5.36263 0 11.9778V65.0222C0 71.6374 5.34695 77 11.9427 77H85.3053C91.9012 77 97.2481 71.6374 97.2481 65.0222V11.9778C97.2481 5.36263 91.9012 0 85.3053 0H11.9427ZM15.355 8.55573C11.5859 8.55573 8.53053 11.6201 8.53053 15.4002C8.53053 19.1803 11.5859 22.2446 15.355 22.2446C19.124 22.2446 22.1794 19.1803 22.1794 15.4002C22.1794 11.6201 19.124 8.55573 15.355 8.55573ZM27.298 15.4002C27.298 11.6201 30.3534 8.55573 34.1224 8.55573C37.8914 8.55573 40.9468 11.6201 40.9468 15.4002C40.9468 19.1803 37.8914 22.2446 34.1224 22.2446C30.3534 22.2446 27.298 19.1803 27.298 15.4002ZM52.8893 8.55573C49.1203 8.55573 46.0649 11.6201 46.0649 15.4002C46.0649 19.1803 49.1203 22.2446 52.8893 22.2446C56.6583 22.2446 59.7137 19.1803 59.7137 15.4002C59.7137 11.6201 56.6583 8.55573 52.8893 8.55573Z" fill="#010101"/>
</g>
<defs>
<clipPath id="clip0_1_28">
<rect width="447" height="77" fill="white"/>
</clipPath>
</defs>
</svg>
