<svg width="492" height="72" viewBox="0 0 492 72" fill="none" xmlns="http://www.w3.org/2000/svg">
<g clip-path="url(#clip0_1_3)">
<path d="M152.7 71.55C148.886 71.55 145.29 71.003 141.914 69.9089C138.537 68.7836 135.692 67.0488 133.379 64.7044C131.065 62.3601 129.596 59.3124 128.971 55.5614L141.726 53.0295C142.007 55.874 143.008 58.0308 144.728 59.4999C146.478 60.9378 148.964 61.6567 152.184 61.6567C155.279 61.6567 157.577 61.0472 159.078 59.8282C160.578 58.5778 161.328 57.1243 161.328 55.4677C161.328 53.9985 160.734 52.7326 159.547 51.6698C158.39 50.607 156.373 49.8568 153.497 49.4192L148.901 48.669C147.088 48.3877 145.15 48.0126 143.086 47.5437C141.054 47.0436 139.132 46.309 137.318 45.34C135.505 44.3398 134.02 42.9644 132.863 41.2139C131.706 39.4634 131.128 37.2129 131.128 34.4622C131.128 31.1175 132.019 28.2574 133.801 25.8818C135.614 23.4749 138.115 21.6463 141.304 20.396C144.493 19.1144 148.135 18.4736 152.231 18.4736C156.013 18.4736 159.468 19.0362 162.594 20.1615C165.72 21.2556 168.331 22.881 170.425 25.0378C172.552 27.1634 173.928 29.8046 174.553 32.9618L161.797 35.5874C161.578 34.3058 161.156 33.1024 160.531 31.9771C159.937 30.8518 159.015 29.9454 157.764 29.2577C156.513 28.5387 154.826 28.1793 152.7 28.1793C150.292 28.1793 148.37 28.6482 146.931 29.5858C145.525 30.5236 144.822 31.8052 144.822 33.4306C144.822 34.6184 145.212 35.5874 145.993 36.3376C146.806 37.0878 147.901 37.6974 149.277 38.1662C150.683 38.6038 152.262 38.979 154.013 39.2915L159.265 40.1824C161.953 40.62 164.502 41.3858 166.909 42.4798C169.348 43.5426 171.332 45.0743 172.864 47.0748C174.396 49.0754 175.162 51.701 175.162 54.9518C175.162 58.5466 174.178 61.5786 172.208 64.048C170.269 66.5174 167.597 68.3929 164.189 69.6745C160.812 70.9248 156.983 71.55 152.7 71.55Z" fill="#010101"/>
<path d="M193.029 70.3309L180.695 19.6926H195.186L203.393 61.985H202.221L211.975 19.6926H230.545L240.252 62.1257H238.845L247.287 19.6926H261.027L248.646 70.3309H229.231L219.712 25.0378H222.151L212.444 70.3309H193.029Z" fill="#010101"/>
<path d="M291.93 71.55C286.959 71.55 282.488 70.4716 278.518 68.3147C274.579 66.1579 271.453 63.0946 269.139 59.1249C266.857 55.1238 265.716 50.4038 265.716 44.9649C265.716 39.5572 266.842 34.8685 269.092 30.8987C271.375 26.929 274.469 23.8656 278.377 21.7088C282.316 19.552 286.803 18.4736 291.836 18.4736C294.619 18.4736 297.432 18.8956 300.277 19.7395C303.153 20.5835 305.796 22.0839 308.202 24.2407C310.61 26.3662 312.548 29.3514 314.017 33.1962C315.487 37.0097 316.221 41.886 316.221 47.825H274.673V39.8542H303.747L302.293 42.3392C302.043 38.9634 301.418 36.2438 300.418 34.1808C299.418 32.1178 298.151 30.6174 296.619 29.6797C295.088 28.7419 293.368 28.273 291.461 28.273C288.991 28.273 286.928 28.9763 285.271 30.383C283.614 31.7896 282.363 33.7588 281.52 36.2907C280.707 38.7914 280.3 41.6984 280.3 45.0118C280.3 50.0131 281.238 53.9673 283.113 56.8742C285.021 59.7813 287.928 61.2348 291.836 61.2348C294.369 61.2348 296.541 60.5783 298.354 59.2655C300.199 57.9526 301.606 55.9522 302.575 53.2639L315.237 56.4991C314.049 60.0001 312.251 62.8602 309.844 65.0795C307.436 67.2989 304.67 68.9399 301.543 70.0027C298.448 71.0342 295.244 71.55 291.93 71.55Z" fill="#010101"/>
<path d="M344.734 71.55C340.513 71.55 336.839 70.4872 333.713 68.3617C330.587 66.2361 328.18 63.1884 326.491 59.2186C324.803 55.2488 323.959 50.482 323.959 44.918C323.959 39.3541 324.803 34.6028 326.491 30.6642C328.211 26.6945 330.634 23.6781 333.76 21.615C336.886 19.5207 340.622 18.4736 344.968 18.4736C348.688 18.4736 352.002 19.3332 354.91 21.0524C357.848 22.7716 360.24 25.6005 362.084 29.539L360.63 29.6327V0H374.605V70.3309H361.381V60.1564L361.522 60.8597C359.834 64.5169 357.536 67.2207 354.629 68.9712C351.721 70.6904 348.423 71.55 344.734 71.55ZM349.845 61.0003C352.033 61.0003 353.988 60.4221 355.706 59.2655C357.426 58.109 358.786 56.3429 359.787 53.9673C360.818 51.5916 361.334 48.6378 361.334 45.1055C361.334 39.7604 360.24 35.7438 358.052 33.0555C355.863 30.3674 353.159 29.0232 349.939 29.0232C346.562 29.0232 343.843 30.4454 341.779 33.29C339.747 36.1345 338.731 40.1042 338.731 45.1994C338.731 50.1694 339.716 54.0454 341.685 56.8274C343.686 59.6094 346.406 61.0003 349.845 61.0003Z" fill="#010101"/>
<path d="M410.573 71.55C405.603 71.55 401.132 70.4716 397.162 68.3147C393.223 66.1579 390.096 63.0946 387.783 59.1249C385.5 55.1238 384.359 50.4038 384.359 44.9649C384.359 39.5572 385.485 34.8685 387.736 30.8987C390.018 26.929 393.113 23.8656 397.021 21.7088C400.96 19.552 405.446 18.4736 410.48 18.4736C413.263 18.4736 416.076 18.8956 418.921 19.7395C421.797 20.5835 424.438 22.0839 426.846 24.2407C429.253 26.3662 431.192 29.3514 432.661 33.1962C434.13 37.0097 434.865 41.886 434.865 47.825H393.317V39.8542H422.391L420.937 42.3392C420.687 38.9634 420.062 36.2438 419.061 34.1808C418.061 32.1178 416.795 30.6174 415.263 29.6797C413.731 28.7419 412.012 28.273 410.104 28.273C407.635 28.273 405.571 28.9763 403.914 30.383C402.258 31.7896 401.007 33.7588 400.163 36.2907C399.35 38.7914 398.944 41.6984 398.944 45.0118C398.944 50.0131 399.881 53.9673 401.757 56.8742C403.665 59.7813 406.572 61.2348 410.48 61.2348C413.012 61.2348 415.185 60.5783 416.998 59.2655C418.842 57.9526 420.249 55.9522 421.219 53.2639L433.88 56.4991C432.693 60.0001 430.895 62.8602 428.487 65.0795C426.08 67.2989 423.313 68.9399 420.187 70.0027C417.092 71.0342 413.887 71.55 410.573 71.55Z" fill="#010101"/>
<path d="M444.713 70.3309V19.6926H458.218V31.3676L457.89 29.2577C459.422 25.913 461.595 23.2874 464.409 21.3806C467.223 19.4426 470.615 18.4736 474.585 18.4736C478.524 18.4736 481.744 19.3645 484.245 21.1462C486.777 22.9278 488.653 25.3973 489.873 28.5543C491.092 31.7114 491.701 35.353 491.701 39.4791V70.3309H477.726V40.3699C477.726 36.7753 477.133 33.9933 475.945 32.024C474.757 30.0235 472.693 29.0232 469.755 29.0232C466.285 29.0232 463.564 30.508 461.595 33.4775C459.657 36.447 458.687 40.9951 458.687 47.1217V70.3309H444.713Z" fill="#010101"/>
<path d="M35.8252 36C35.8252 28.8798 37.9264 21.9196 41.8629 15.9994C45.7994 10.0793 51.3946 5.46509 57.9408 2.74034C64.4869 0.01558 71.6902 -0.697339 78.6397 0.691729C85.5889 2.0808 91.9722 5.50946 96.9829 10.5442C101.993 15.5789 105.405 21.9934 106.787 28.9767C108.17 35.9601 107.461 43.1985 104.749 49.7766C102.037 56.3547 97.4455 61.9772 91.5542 65.9329C85.6621 69.8886 78.7361 72 71.6505 72V36H35.8252Z" fill="#010101"/>
<path d="M71.6505 36C71.6505 43.1201 69.5494 50.0803 65.6128 56.0005C61.6764 61.9207 56.0812 66.5349 49.5349 69.2597C42.9888 71.9844 35.7855 72.6974 28.8361 71.3082C21.8867 69.9192 15.5033 66.4905 10.493 61.4558C5.48274 56.4211 2.07072 50.0066 0.688388 43.0232C-0.693936 36.0399 0.0155224 28.8015 2.72705 22.2234C5.43857 15.6453 10.0304 10.0228 15.9218 6.0671C21.8132 2.11136 28.7397 -8.49064e-08 35.8253 0V36H71.6505Z" fill="#010101"/>
</g>
<defs>
<clipPath id="clip0_1_3">
<rect width="492" height="72" fill="white"/>
</clipPath>
</defs>
</svg>
