<svg width="496" height="115" viewBox="0 0 496 115" fill="none" xmlns="http://www.w3.org/2000/svg">
<g clip-path="url(#clip0_67_41)">
<path fill-rule="evenodd" clip-rule="evenodd" d="M24.2658 27.7457C32.3954 16.8055 45.4138 9.71766 60.0867 9.71766C74.8459 9.71766 87.9304 16.8891 96.0501 27.9391C95.7048 28.2947 95.3898 28.6631 95.1053 29.0311C93.6175 30.9581 92.4986 33.4402 91.6021 35.9607C89.7967 41.0301 88.4194 47.6518 87.1444 53.8526L87.0311 54.4101C85.7589 60.5993 84.5764 66.3554 83.1467 70.6285C82.5044 72.5481 81.8952 73.9053 81.3551 74.7746C80.7915 73.8984 80.1519 72.5246 79.475 70.5774C77.9458 66.1817 76.6598 60.2028 75.2964 53.8188L75.2522 53.6097C73.9421 47.4777 72.5523 40.9713 70.8195 35.991C69.9489 33.4893 68.8807 31.032 67.4837 29.1229C66.1126 27.2493 63.8303 25.1348 60.4923 25.1348C57.1752 25.1348 54.8824 27.2264 53.4915 29.079C52.0674 30.9757 50.9572 33.4228 50.0426 35.9258C48.2008 40.9662 46.695 47.5594 45.2936 53.7685L45.1488 54.4101C43.7611 60.5609 42.4639 66.3113 40.9913 70.5926C40.4291 72.2275 39.8986 73.4713 39.4185 74.36C38.9492 73.4755 38.432 72.2399 37.8852 70.6188C36.4724 66.4288 35.2348 60.8394 33.9057 54.8359L33.6731 53.7852C32.2958 47.5722 30.8017 40.9671 28.9337 35.911C28.0056 33.3986 26.8703 30.9393 25.4012 29.0336C25.0686 28.6023 24.6905 28.1645 24.2658 27.7457ZM19.3454 36.1461C19.7326 36.911 20.1422 37.8591 20.5657 39.0055C22.1826 43.3819 23.5526 49.3538 24.9632 55.7177L25.2377 56.9577C26.5221 62.7645 27.8582 68.8048 29.4318 73.4713C30.2688 75.9534 31.2795 78.3844 32.5796 80.2736C33.8088 82.0606 36.0142 84.3686 39.4053 84.3686C42.7867 84.3686 44.9973 82.0717 46.235 80.293C47.5461 78.4079 48.5734 75.9797 49.4274 73.4962C51.0643 68.7372 52.458 62.5553 53.7918 56.6391L53.9958 55.7344C55.433 49.3666 56.8165 43.3829 58.4216 38.9906C59.1652 36.9555 59.8614 35.5378 60.4674 34.6583C61.042 35.5302 61.6981 36.9254 62.3941 38.9255C63.9235 43.3213 65.2085 49.3002 66.5722 55.6841L66.6168 55.8932C67.9266 62.0253 69.3164 68.5317 71.0492 73.5114C71.9197 76.0142 72.988 78.4715 74.3849 80.3801C75.7564 82.2541 78.0384 84.3686 81.3758 84.3686C84.7312 84.3686 87.0049 82.2347 88.36 80.3441C89.7359 78.4259 90.7705 75.9603 91.6063 73.4617C93.2128 68.6623 94.4906 62.4349 95.7076 56.5107L95.883 55.6504C97.1939 49.2742 98.4524 43.3189 100.006 38.9556C100.343 38.0064 100.675 37.1971 100.991 36.5173C103.373 41.9778 104.693 48.0074 104.693 54.3455C104.693 78.9925 84.7229 98.9738 60.0867 98.9738C35.451 98.9738 15.4798 78.9925 15.4798 54.3455C15.4798 47.8634 16.8612 41.704 19.3454 36.1461ZM60.0867 0.792145C30.5239 0.792145 6.55847 24.7689 6.55847 54.3455C6.55847 83.9222 30.5239 107.899 60.0867 107.899C89.6502 107.899 113.614 83.9222 113.614 54.3455C113.614 24.7689 89.6502 0.792145 60.0867 0.792145ZM61.1065 33.9112C61.1065 33.9123 61.0961 33.9206 61.0753 33.9328C61.096 33.9162 61.1065 33.9101 61.1065 33.9112ZM59.8735 33.9173C59.8527 33.9046 59.8425 33.8959 59.8425 33.8948C59.8425 33.8937 59.8529 33.9 59.8735 33.9173ZM80.6975 75.6217C80.6975 75.6217 80.7072 75.6121 80.7265 75.5996C80.7072 75.6162 80.6975 75.6231 80.6975 75.6217ZM81.9947 75.5858C82.0154 75.5983 82.0264 75.6066 82.0264 75.6079C82.0264 75.6093 82.0154 75.6024 81.9947 75.5858ZM38.4912 75.7019C38.491 75.7005 38.5039 75.6881 38.5296 75.6701C38.5041 75.6936 38.4912 75.7033 38.4912 75.7019ZM40.2979 75.6784C40.3234 75.6964 40.3361 75.7088 40.3361 75.7102C40.336 75.7116 40.3231 75.7033 40.2979 75.6784Z" fill="#010101"/>
<path d="M143.172 86.0505L130.191 41.628H141.561L149.259 73.6012L158.211 41.628H170.922L179.875 73.6012L187.663 41.628H199.032L185.962 86.0505H174.056L164.566 52.8232L155.078 86.0505H143.172Z" fill="#010101"/>
<path d="M215.714 87.1257C211.895 87.1257 208.762 86.5273 206.316 85.3332C203.869 84.0797 202.048 82.4379 200.855 80.4077C199.661 78.3775 199.065 76.1386 199.065 73.6911C199.065 69.5713 200.675 66.2274 203.898 63.6601C207.121 61.0927 211.956 59.8089 218.401 59.8089H229.68V58.7341C229.68 55.6891 228.814 53.4501 227.084 52.0171C225.354 50.5841 223.204 49.8676 220.639 49.8676C218.311 49.8676 216.282 50.4348 214.551 51.5693C212.82 52.6441 211.746 54.2561 211.329 56.4056H200.138C200.438 53.1814 201.511 50.3751 203.361 47.9868C205.271 45.5986 207.718 43.7775 210.701 42.5237C213.687 41.2101 217.028 40.5533 220.727 40.5533C227.054 40.5533 232.037 42.1355 235.678 45.3C239.318 48.4645 241.139 52.9426 241.139 58.7341V86.0505H231.381L230.307 78.8861C228.994 81.2742 227.144 83.2436 224.757 84.797C222.429 86.349 219.415 87.1257 215.714 87.1257ZM218.311 78.1688C221.594 78.1688 224.13 77.0936 225.92 74.9446C227.77 72.7955 228.934 70.1379 229.412 66.9737H219.654C216.61 66.9737 214.432 67.5411 213.119 68.6754C211.806 69.7495 211.149 71.0942 211.149 72.7057C211.149 74.4374 211.806 75.7807 213.119 76.7357C214.432 77.6906 216.162 78.1688 218.311 78.1688Z" fill="#010101"/>
<path d="M259.177 86.0505L242.885 41.628H254.879L266.16 75.214L277.438 41.628H289.434L273.053 86.0505H259.177Z" fill="#010101"/>
<path d="M312.469 87.1257C307.993 87.1257 304.024 86.1693 300.563 84.2594C297.102 82.348 294.386 79.6614 292.417 76.198C290.447 72.7361 289.463 68.7351 289.463 64.1974C289.463 59.6 290.418 55.51 292.327 51.9275C294.297 48.345 296.982 45.5687 300.384 43.5984C303.845 41.5683 307.903 40.5533 312.558 40.5533C316.915 40.5533 320.765 41.5086 324.107 43.4192C327.448 45.3299 330.045 47.957 331.895 51.3006C333.804 54.5845 334.76 58.2565 334.76 62.3166C334.76 62.9735 334.73 63.6601 334.67 64.3765C334.67 65.0931 334.64 65.8394 334.58 66.6155H300.832C301.071 70.0785 302.264 72.7955 304.413 74.7663C306.62 76.7357 309.276 77.721 312.38 77.721C314.706 77.721 316.647 77.2138 318.199 76.198C319.809 75.1242 321.003 73.7505 321.779 72.0782H333.417C332.581 74.8851 331.178 77.4529 329.21 79.7816C327.299 82.0495 324.912 83.8406 322.047 85.1549C319.243 86.4679 316.049 87.1257 312.469 87.1257ZM312.558 49.8676C309.754 49.8676 307.277 50.6738 305.128 52.2857C302.98 53.8382 301.607 56.2264 301.01 59.4507H323.122C322.942 56.525 321.869 54.1964 319.899 52.4649C317.929 50.7335 315.483 49.8676 312.558 49.8676Z" fill="#010101"/>
<path d="M340.816 86.0505V21.5663H352.274V86.0505H340.816Z" fill="#010101"/>
<path d="M381.975 87.1257C377.5 87.1257 373.531 86.1693 370.069 84.2594C366.609 82.348 363.893 79.6614 361.923 76.198C359.954 72.7361 358.97 68.7351 358.97 64.1974C358.97 59.6 359.924 55.51 361.834 51.9275C363.803 48.345 366.489 45.5687 369.891 43.5984C373.353 41.5683 377.41 40.5533 382.065 40.5533C386.422 40.5533 390.272 41.5086 393.613 43.4192C396.955 45.3299 399.552 47.957 401.402 51.3006C403.311 54.5845 404.267 58.2565 404.267 62.3166C404.267 62.9735 404.236 63.6601 404.177 64.3765C404.177 65.0931 404.146 65.8394 404.087 66.6155H370.339C370.578 70.0785 371.771 72.7955 373.919 74.7663C376.127 76.7357 378.783 77.721 381.887 77.721C384.213 77.721 386.154 77.2138 387.705 76.198C389.316 75.1242 390.509 73.7505 391.286 72.0782H402.924C402.088 74.8851 400.685 77.4529 398.716 79.7816C396.806 82.0495 394.419 83.8406 391.554 85.1549C388.75 86.4679 385.557 87.1257 381.975 87.1257ZM382.065 49.8676C379.261 49.8676 376.784 50.6738 374.635 52.2857C372.487 53.8382 371.114 56.2264 370.517 59.4507H392.629C392.449 56.525 391.376 54.1964 389.406 52.4649C387.436 50.7335 384.99 49.8676 382.065 49.8676Z" fill="#010101"/>
<path d="M428.674 87.1257C424.736 87.1257 421.274 86.4983 418.29 85.2448C415.305 83.9305 412.918 82.1394 411.128 79.8701C409.338 77.6022 408.264 74.975 407.905 71.9898H419.453C419.811 73.7201 420.767 75.2141 422.318 76.4676C423.929 77.6616 425.989 78.2586 428.495 78.2586C431.002 78.2586 432.822 77.7514 433.955 76.7357C435.149 75.7212 435.745 74.5562 435.745 73.2433C435.745 71.332 434.911 70.0481 433.24 69.3916C431.568 68.6754 429.24 67.9888 426.257 67.3321C424.348 66.914 422.408 66.4066 420.438 65.8095C418.469 65.2125 416.649 64.4661 414.978 63.5705C413.366 62.6151 412.053 61.4211 411.038 59.988C410.024 58.4953 409.517 56.6742 409.517 54.5248C409.517 50.5841 411.069 47.2704 414.172 44.5836C417.334 41.8967 421.751 40.5533 427.421 40.5533C432.673 40.5533 436.85 41.7773 439.953 44.2252C443.116 46.6734 444.996 50.0467 445.593 54.3456H434.762C434.104 51.0618 431.628 49.4198 427.331 49.4198C425.183 49.4198 423.512 49.8378 422.318 50.6738C421.184 51.5096 420.618 52.5544 420.618 53.8083C420.618 55.1219 421.483 56.1667 423.214 56.943C424.944 57.7192 427.242 58.4356 430.107 59.0925C433.209 59.8089 436.044 60.6149 438.61 61.5106C441.236 62.3465 443.325 63.6302 444.878 65.3618C446.429 67.0334 447.204 69.451 447.204 72.6159C447.265 75.3633 446.548 77.8399 445.056 80.0497C443.564 82.2582 441.416 83.9899 438.61 85.2448C435.806 86.4983 432.494 87.1257 428.674 87.1257Z" fill="#010101"/>
<path d="M472.125 87.1257C468.187 87.1257 464.725 86.4983 461.741 85.2448C458.758 83.9305 456.371 82.1394 454.58 79.8701C452.79 77.6022 451.715 74.975 451.358 71.9898H462.906C463.264 73.7201 464.218 75.2141 465.77 76.4676C467.382 77.6616 469.44 78.2586 471.947 78.2586C474.453 78.2586 476.274 77.7514 477.408 76.7357C478.601 75.7212 479.198 74.5562 479.198 73.2433C479.198 71.332 478.362 70.0481 476.691 69.3916C475.021 68.6754 472.693 67.9888 469.709 67.3321C467.799 66.914 465.859 66.4066 463.89 65.8095C461.921 65.2125 460.1 64.4661 458.429 63.5705C456.818 62.6151 455.505 61.4211 454.491 59.988C453.475 58.4953 452.968 56.6742 452.968 54.5248C452.968 50.5841 454.521 47.2704 457.624 44.5836C460.787 41.8967 465.203 40.5533 470.872 40.5533C476.124 40.5533 480.302 41.7773 483.406 44.2252C486.568 46.6734 488.448 50.0467 489.044 54.3456H478.213C477.557 51.0618 475.08 49.4198 470.783 49.4198C468.635 49.4198 466.963 49.8378 465.77 50.6738C464.635 51.5096 464.069 52.5544 464.069 53.8083C464.069 55.1219 464.934 56.1667 466.665 56.943C468.396 57.7192 470.693 58.4356 473.558 59.0925C476.662 59.8089 479.496 60.6149 482.063 61.5106C484.689 62.3465 486.778 63.6302 488.329 65.3618C489.88 67.0334 490.656 69.451 490.656 72.6159C490.716 75.3633 490 77.8399 488.508 80.0497C487.015 82.2582 484.867 83.9899 482.063 85.2448C479.257 86.4983 475.945 87.1257 472.125 87.1257Z" fill="#010101"/>
</g>
<defs>
<clipPath id="clip0_67_41">
<rect width="496" height="115" fill="white"/>
</clipPath>
</defs>
</svg>
