<svg width="452" height="84" viewBox="0 0 452 84" fill="none" xmlns="http://www.w3.org/2000/svg">
<g clip-path="url(#clip0_1_60)">
<path d="M425.173 79.2976C420.17 79.2976 415.796 78.2131 412.051 76.0441C408.339 73.8441 405.444 70.7921 403.367 66.8879C401.291 62.9528 400.253 58.3669 400.253 53.1305C400.253 47.646 401.275 42.9053 403.32 38.9081C405.365 34.8801 408.213 31.7816 411.863 29.6126C415.545 27.4127 419.856 26.3126 424.795 26.3126C429.924 26.3126 434.282 27.4746 437.869 29.7985C441.488 32.1223 444.193 35.4378 445.987 39.7448C447.812 44.0517 448.599 49.1799 448.346 55.129H439.851V52.1544C439.757 45.9883 438.482 41.387 436.028 38.3505C433.574 35.2829 429.924 33.7491 425.078 33.7491C419.886 33.7491 415.938 35.3913 413.231 38.6757C410.526 41.9602 409.173 46.67 409.173 52.8051C409.173 58.7233 410.526 63.3091 413.231 66.5626C415.938 69.816 419.792 71.4427 424.795 71.4427C428.162 71.4427 431.088 70.6837 433.574 69.1653C436.06 67.6471 438.011 65.4626 439.427 62.6119L447.497 65.3541C445.514 69.7851 442.526 73.2245 438.53 75.6722C434.565 78.0891 430.113 79.2976 425.173 79.2976ZM406.341 55.129V48.4827H444.005V55.129H406.341Z" fill="#010101"/>
<path d="M374.456 77.9033V27.707H381.96V39.8377L380.733 38.2575C381.33 36.7083 382.101 35.2829 383.046 33.9815C384.021 32.6801 385.107 31.6112 386.302 30.7745C387.624 29.7211 389.119 28.9154 390.786 28.3577C392.454 27.8 394.152 27.4746 395.884 27.3817C397.614 27.2577 399.234 27.3662 400.745 27.707V35.4688C398.983 35.004 397.047 34.8801 394.939 35.097C392.831 35.3139 390.881 36.0731 389.087 37.3744C387.451 38.5209 386.177 39.9152 385.264 41.5574C384.383 43.1997 383.77 44.9813 383.424 46.9024C383.077 48.7925 382.904 50.7291 382.904 52.7121V77.9033H374.456Z" fill="#010101"/>
<path d="M341.511 79.2976C337.704 79.2976 334.511 78.6159 331.93 77.2526C329.381 75.8582 327.447 74.03 326.126 71.7681C324.835 69.5062 324.19 67.0273 324.19 64.3317C324.19 61.6979 324.694 59.4205 325.701 57.4994C326.739 55.5473 328.186 53.936 330.043 52.6657C331.899 51.3643 334.117 50.3418 336.698 49.5981C339.12 48.9475 341.826 48.3897 344.815 47.9249C347.837 47.4291 350.888 46.9799 353.971 46.5771C357.056 46.1742 359.935 45.7869 362.609 45.4151L359.589 47.1348C359.683 42.6729 358.77 39.3729 356.851 37.235C354.963 35.097 351.691 34.028 347.034 34.028C343.95 34.028 341.244 34.7251 338.916 36.1195C336.619 37.4829 334.999 39.7138 334.054 42.8124L326.078 40.442C327.305 36.0421 329.681 32.5871 333.205 30.0773C336.729 27.5676 341.37 26.3126 347.129 26.3126C351.754 26.3126 355.718 27.1338 359.022 28.776C362.358 30.3872 364.749 32.835 366.196 36.1195C366.92 37.6688 367.376 39.3575 367.565 41.1856C367.754 42.9827 367.848 44.8729 367.848 46.8559V77.9032H360.39V65.8654L362.137 66.9809C360.218 71.04 357.527 74.1075 354.066 76.1835C350.637 78.2595 346.451 79.2976 341.511 79.2976ZM342.786 72.3724C345.806 72.3724 348.418 71.8456 350.621 70.7921C352.854 69.7076 354.648 68.2978 356.002 66.5626C357.355 64.7964 358.235 62.8753 358.644 60.7993C359.117 59.2501 359.368 57.5304 359.399 55.6403C359.463 53.7192 359.494 52.2473 359.494 51.2249L362.421 52.4797C359.682 52.8516 356.993 53.2079 354.349 53.5488C351.707 53.8895 349.205 54.2614 346.845 54.6642C344.485 55.0361 342.361 55.4854 340.473 56.012C339.089 56.4459 337.783 57.0036 336.556 57.6853C335.361 58.3669 334.384 59.2501 333.629 60.3345C332.906 61.388 332.544 62.7049 332.544 64.2852C332.544 65.6485 332.89 66.9499 333.583 68.1893C334.307 69.4287 335.407 70.4358 336.886 71.2104C338.396 71.985 340.363 72.3724 342.786 72.3724Z" fill="#010101"/>
<path d="M272.836 77.9032L257.261 27.6605L265.616 27.7069L276.99 64.4246L288.459 27.7069H295.869L307.291 64.4246L318.713 27.7069H327.019L311.444 77.9032H304.459L292.14 39.7448L279.822 77.9032H272.836Z" fill="#010101"/>
<path d="M230.881 79.2976C227.074 79.2976 223.88 78.6159 221.3 77.2526C218.751 75.8582 216.816 74.03 215.494 71.7681C214.204 69.5062 213.559 67.0273 213.559 64.3317C213.559 61.6979 214.062 59.4205 215.069 57.4994C216.108 55.5473 217.555 53.936 219.411 52.6657C221.268 51.3643 223.487 50.3418 226.067 49.5981C228.49 48.9475 231.195 48.3897 234.185 47.9249C237.205 47.4291 240.258 46.9799 243.341 46.5771C246.424 46.1742 249.303 45.7869 251.978 45.4151L248.957 47.1348C249.052 42.6729 248.14 39.3729 246.22 37.235C244.332 35.097 241.059 34.028 236.403 34.028C233.319 34.028 230.613 34.7251 228.284 36.1195C225.988 37.4829 224.367 39.7138 223.423 42.8124L215.447 40.442C216.674 36.0421 219.049 32.5871 222.573 30.0773C226.098 27.5676 230.739 26.3126 236.497 26.3126C241.122 26.3126 245.087 27.1338 248.391 28.776C251.727 30.3872 254.118 32.835 255.565 36.1195C256.289 37.6688 256.745 39.3575 256.934 41.1856C257.122 42.9827 257.217 44.8729 257.217 46.8559V77.9032H249.76V65.8654L251.506 66.9809C249.587 71.04 246.896 74.1075 243.435 76.1835C240.005 78.2595 235.821 79.2976 230.881 79.2976ZM232.155 72.3724C235.176 72.3724 237.788 71.8456 239.989 70.7921C242.224 69.7076 244.017 68.2978 245.37 66.5626C246.724 64.7964 247.604 62.8753 248.014 60.7993C248.486 59.2501 248.737 57.5304 248.769 55.6403C248.832 53.7192 248.863 52.2473 248.863 51.2249L251.789 52.4797C249.052 52.8516 246.362 53.2079 243.718 53.5488C241.075 53.8895 238.573 54.2614 236.214 54.6642C233.854 55.0361 231.731 55.4854 229.842 56.012C228.458 56.4459 227.153 57.0036 225.925 57.6853C224.729 58.3669 223.754 59.2501 222.998 60.3345C222.275 61.388 221.913 62.7049 221.913 64.2852C221.913 65.6485 222.259 66.9499 222.951 68.1893C223.675 69.4287 224.776 70.4358 226.255 71.2104C227.766 71.985 229.732 72.3724 232.155 72.3724Z" fill="#010101"/>
<path d="M199.491 77.9032V9.58057H207.893V77.9032H199.491Z" fill="#010101"/>
<path d="M170.53 79.2976C165.527 79.2976 161.153 78.2131 157.409 76.0441C153.696 73.8441 150.801 70.7921 148.724 66.8879C146.648 62.9528 145.609 58.3669 145.609 53.1305C145.609 47.646 146.632 42.9053 148.677 38.9081C150.722 34.8801 153.569 31.7816 157.22 29.6126C160.901 27.4127 165.212 26.3126 170.152 26.3126C175.28 26.3126 179.639 27.4746 183.226 29.7985C186.844 32.1223 189.55 35.4378 191.343 39.7448C193.169 44.0517 193.955 49.1799 193.704 55.129H185.207V52.1544C185.114 45.9883 183.839 41.387 181.385 38.3505C178.931 35.2829 175.28 33.7491 170.435 33.7491C165.244 33.7491 161.295 35.3913 158.588 38.6757C155.883 41.9602 154.53 46.67 154.53 52.8051C154.53 58.7233 155.883 63.3091 158.588 66.5626C161.295 69.816 165.149 71.4427 170.152 71.4427C173.518 71.4427 176.445 70.6837 178.931 69.1653C181.416 67.6471 183.368 65.4626 184.784 62.6119L192.854 65.3541C190.872 69.7851 187.883 73.2245 183.886 75.6722C179.921 78.0891 175.47 79.2976 170.53 79.2976ZM151.698 55.129V48.4827H189.362V55.129H151.698Z" fill="#010101"/>
<path d="M117.423 79.2976C112.673 79.2976 108.598 78.1357 105.2 75.8118C101.801 73.4569 99.1737 70.2808 97.3178 66.2837C95.493 62.2867 94.5796 57.7783 94.5796 52.7586C94.5796 47.739 95.493 43.2306 97.3178 39.2335C99.1737 35.2364 101.801 32.0915 105.2 29.7985C108.598 27.4746 112.657 26.3126 117.377 26.3126C122.191 26.3126 126.234 27.4591 129.506 29.7521C132.779 32.045 135.248 35.1899 136.917 39.187C138.616 43.1841 139.465 47.708 139.465 52.7586C139.465 57.7473 138.616 62.2557 136.917 66.2837C135.248 70.2808 132.779 73.4569 129.506 75.8118C126.234 78.1357 122.207 79.2976 117.423 79.2976ZM118.462 71.7216C121.892 71.7216 124.708 70.9161 126.911 69.3049C129.114 67.6626 130.734 65.4161 131.772 62.5655C132.842 59.6839 133.377 56.4149 133.377 52.7586C133.377 49.0404 132.842 45.7714 131.772 42.9518C130.734 40.1011 129.129 37.8857 126.958 36.3055C124.787 34.6941 122.033 33.8886 118.698 33.8886C115.237 33.8886 112.374 34.7251 110.108 36.3984C107.874 38.0716 106.207 40.3335 105.105 43.1841C104.035 46.0348 103.5 49.2263 103.5 52.7586C103.5 56.3219 104.051 59.5444 105.152 62.4261C106.254 65.2767 107.905 67.5386 110.108 69.2119C112.342 70.8851 115.127 71.7216 118.462 71.7216ZM133.377 77.9033V40.9533H132.432V10.9749H140.881V77.9033H133.377Z" fill="#010101"/>
<path d="M442.36 16.2581V15.9901L447.835 6.90974H442.84V4.90765H451.646V5.17565L446.202 14.2402H451.485V16.2581H442.36Z" fill="#010101"/>
<path d="M430.952 16.2581L434.474 4.90765H437.724L441.246 16.2581H439.005L435.867 6.24763H436.283L433.193 16.2581H430.952ZM433.066 13.8934V11.8913H439.149V13.8934H433.066Z" fill="#010101"/>
<path fill-rule="evenodd" clip-rule="evenodd" d="M42.6504 0H0V84H42.6504C66.2056 84 85.3009 65.1959 85.3009 42C85.3009 18.8041 66.2056 0 42.6504 0ZM46.6497 72.0322C45.6696 71.748 44.6644 70.599 44.4507 69.4994C44.3125 68.7827 44.4759 68.2886 45.5188 66.2993C49.7408 58.2682 51.5754 50.8796 51.5754 41.9218C51.5754 33.2606 49.9544 26.5145 45.9209 18.434C45.0539 16.7041 44.3502 15.0857 44.3502 14.8508C44.3502 13.986 45.079 12.738 45.8707 12.2562C46.9513 11.589 48.7732 11.7126 49.6529 12.5156C49.9921 12.8246 50.8591 14.2331 51.5879 15.6416C54.478 21.2139 56.4508 27.33 57.4308 33.6931C58.034 37.6344 58.1596 45.0972 57.6696 48.7051C56.7775 55.3523 54.9932 61.2953 52.1283 67.1024C50.3942 70.6113 49.3136 72.057 48.4088 72.057C48.233 72.057 47.9314 72.1064 47.7555 72.1558C47.5796 72.2053 47.0769 72.1558 46.6497 72.0322ZM34.9011 65.9904C33.3931 65.558 32.3 63.7293 32.7398 62.3702C32.8402 62.0366 33.5565 60.5169 34.323 58.9848C37.5523 52.4981 38.8969 45.5543 38.2434 38.7341C37.7031 33.1247 36.6853 29.5911 34.1094 24.4264C32.388 20.9545 32.3 20.4232 33.3052 19.0147C34.2602 17.6803 36.6476 17.4702 37.8916 18.5946C38.7586 19.373 41.4602 24.9207 42.5031 28.0589C45.9461 38.4376 45.4183 49.5946 41.0078 59.7879C38.7335 65.0143 37.1377 66.6329 34.9011 65.9904ZM20.8277 57.5022C21.0539 58.4783 21.858 59.4544 22.7879 59.862C23.2026 60.0474 23.9062 60.1462 24.346 60.1092C25.7911 59.9238 26.5073 59.1578 27.9524 56.279C30.4654 51.2503 31.3701 47.5066 31.3827 42.0578C31.3952 36.7572 30.4278 32.6181 28.0654 27.8489C26.5324 24.7476 25.6403 23.8951 23.9188 23.8951C22.901 23.8951 22.5869 24.0063 21.858 24.6858C20.3879 26.0574 20.4256 26.7492 22.1722 30.2211C26.1429 38.141 26.1052 45.9374 22.034 54.0426C20.9283 56.2419 20.6895 56.9091 20.8277 57.5022ZM11.479 54.1538C10.7376 53.8573 9.8958 52.8689 9.64448 52.0039C9.36803 51.0402 9.59422 50.2742 10.6999 48.4827C12.1324 46.1721 12.4592 44.9365 12.4592 41.9218C12.4592 38.9071 12.1324 37.6592 10.6999 35.361C10.2099 34.5826 9.73244 33.6436 9.61935 33.273C9.15442 31.7532 10.4487 29.8876 12.1827 29.5663C13.6528 29.2944 14.6581 29.9369 16.0151 32.0127C19.923 38.0175 19.923 46.0239 16.0151 51.9792C14.633 54.0673 13.0999 54.8087 11.479 54.1538Z" fill="#010101"/>
</g>
<defs>
<clipPath id="clip0_1_60">
<rect width="452" height="84" fill="white"/>
</clipPath>
</defs>
</svg>
