<svg width="450" height="94" viewBox="0 0 450 94" fill="none" xmlns="http://www.w3.org/2000/svg">
<g clip-path="url(#clip0_11_2)">
<path d="M357.104 8V86H368.52V8H357.104Z" fill="#010101"/>
<path fill-rule="evenodd" clip-rule="evenodd" d="M253.879 87.259C249.374 87.259 245.611 86.21 242.589 84.111C242.258 83.882 241.937 83.643 241.624 83.395V86H231.551V9.25909H243.051V42.1348C245.872 40.3209 249.285 39.4139 253.291 39.4139C257.628 39.4139 261.405 40.4492 264.623 42.5196C267.841 44.5901 270.331 47.4301 272.093 51.0395C273.884 54.621 274.779 58.72 274.779 63.336C274.779 67.869 273.898 71.94 272.135 75.55C270.401 79.159 267.966 82.013 264.833 84.111C261.699 86.21 258.048 87.259 253.879 87.259ZM242.631 56.118C241.959 58.188 241.624 60.594 241.624 63.336C241.624 66.078 241.959 68.485 242.631 70.555C243.302 72.626 244.394 74.234 245.904 75.382C247.443 76.529 249.486 77.102 252.032 77.102C254.494 77.102 256.509 76.487 258.076 75.256C259.643 74.025 260.804 72.374 261.559 70.303C262.315 68.205 262.692 65.883 262.692 63.336C262.692 60.818 262.301 58.524 261.517 56.454C260.734 54.355 259.517 52.6902 257.866 51.4591C256.243 50.2001 254.158 49.5705 251.612 49.5705C249.234 49.5705 247.303 50.1441 245.821 51.2913C244.366 52.4384 243.302 54.047 242.631 56.118Z" fill="#010101"/>
<path d="M213.503 59.223V86H224.918V56.202C224.918 51.2493 223.589 47.2482 220.931 44.1984C218.301 41.1207 214.398 39.5818 209.222 39.5818C206.2 39.5818 203.444 40.2533 200.954 41.5963C198.674 42.814 196.814 44.4874 195.374 46.6167C194.3 44.6843 192.816 43.0948 190.923 41.8481C188.657 40.3372 185.747 39.5818 182.194 39.5818C179.088 39.5818 176.276 40.2673 173.758 41.6383C171.855 42.686 170.246 44.0196 168.931 45.6391V40.673H158.859V86H170.358V58.552C170.358 55.95 171.072 53.8374 172.499 52.2146C173.954 50.5638 175.87 49.7384 178.248 49.7384C180.739 49.7384 182.683 50.5778 184.082 52.2566C185.509 53.9074 186.223 56.23 186.223 59.223V86H197.638V58.552C197.638 56.817 197.96 55.292 198.604 53.9773C199.275 52.6343 200.198 51.599 201.374 50.8716C202.549 50.1161 203.934 49.7384 205.529 49.7384C208.019 49.7384 209.963 50.5778 211.362 52.2566C212.789 53.9074 213.503 56.23 213.503 59.223Z" fill="#010101"/>
<path d="M117.96 85.538C120.198 86.741 123.094 87.343 126.648 87.343C131.096 87.343 134.776 86.378 137.686 84.447C139.067 83.54 140.284 82.499 141.337 81.326V86H151.41V40.673H139.91V63.672C139.91 66.47 139.588 68.736 138.945 70.471C138.329 72.178 137.532 73.479 136.552 74.374C135.573 75.242 134.524 75.829 133.405 76.137C132.286 76.445 131.236 76.599 130.257 76.599C127.823 76.599 125.934 76.053 124.591 74.962C123.276 73.871 122.325 72.514 121.737 70.891C121.15 69.268 120.8 67.659 120.688 66.064C120.576 64.442 120.52 63.113 120.52 62.077V40.673H108.937V66.106C108.937 66.862 108.992 68.065 109.104 69.716C109.216 71.367 109.538 73.199 110.07 75.214C110.601 77.2 111.483 79.117 112.714 80.964C113.973 82.81 115.722 84.335 117.96 85.538Z" fill="#010101"/>
<path d="M279.818 40.673V86H291.317V62.833C291.317 61.098 291.555 59.545 292.031 58.174C292.507 56.775 293.206 55.572 294.129 54.565C295.053 53.5296 296.186 52.7042 297.529 52.0887C298.872 51.4452 300.369 51.0674 302.02 50.9555C303.698 50.8156 305.167 50.9415 306.426 51.3332V40.673C305.055 40.5051 303.684 40.4771 302.313 40.5891C300.942 40.673 299.613 40.9108 298.326 41.3025C297.039 41.6663 295.85 42.1839 294.759 42.8554C293.332 43.6948 292.129 44.758 291.15 46.0451C290.686 46.6544 290.266 47.295 289.89 47.967V40.673H279.818Z" fill="#010101"/>
<path fill-rule="evenodd" clip-rule="evenodd" d="M330.462 87.259C325.817 87.259 321.718 86.266 318.165 84.279C314.639 82.265 311.869 79.509 309.855 76.011C307.868 72.486 306.875 68.457 306.875 63.924C306.875 58.972 307.854 54.663 309.813 50.9975C311.771 47.3321 314.471 44.4922 317.913 42.4777C321.354 40.4352 325.314 39.4139 329.79 39.4139C334.547 39.4139 338.59 40.5331 341.919 42.7715C345.249 45.0098 347.711 48.1575 349.306 52.2146C350.901 56.272 351.461 61.042 350.985 66.526H319.158C319.514 69.247 320.359 71.457 321.69 73.157C323.537 75.452 326.237 76.599 329.79 76.599C332.029 76.599 333.945 76.109 335.54 75.13C337.135 74.151 338.352 72.738 339.191 70.891L350.607 74.165C348.9 78.306 346.2 81.523 342.507 83.817C338.842 86.112 334.827 87.259 330.462 87.259ZM337.471 52.3825C338.446 53.7079 339.101 55.597 339.435 58.048H319.458C319.903 55.955 320.647 54.234 321.69 52.8861C323.537 50.5078 326.405 49.3187 330.294 49.3187C333.624 49.3187 336.016 50.34 337.471 52.3825Z" fill="#010101"/>
<path d="M377.744 86V8H389.16V86H377.744Z" fill="#010101"/>
<path fill-rule="evenodd" clip-rule="evenodd" d="M401.868 85.412C404.135 86.643 406.891 87.259 410.136 87.259C414.053 87.259 417.285 86.587 419.831 85.244C421.861 84.163 423.777 82.561 425.581 80.436V86H435.57V58.3C435.57 56.23 435.486 54.355 435.318 52.6763C435.15 50.9975 434.618 49.3187 433.723 47.6399C432.128 44.6181 429.778 42.4917 426.672 41.2606C423.566 40.0295 420.013 39.4139 416.012 39.4139C410.556 39.4139 406.247 40.5891 403.085 42.9394C399.924 45.2896 397.769 48.3394 396.622 52.0887L406.947 55.362C407.674 53.2918 408.947 51.8509 410.766 51.0395C412.584 50.228 414.333 49.8223 416.012 49.8223C419.034 49.8223 421.188 50.4519 422.475 51.711C423.486 52.6997 424.1 54.128 424.317 55.997C422.384 56.29 420.553 56.568 418.824 56.831C415.886 57.251 413.256 57.699 410.934 58.174C408.611 58.65 406.611 59.196 404.932 59.811C402.498 60.706 400.553 61.826 399.098 63.169C397.671 64.484 396.636 66.008 395.992 67.743C395.349 69.478 395.027 71.395 395.027 73.493C395.027 76.011 395.601 78.319 396.748 80.418C397.923 82.488 399.63 84.153 401.868 85.412ZM417.859 77.186C416.432 77.914 414.669 78.278 412.57 78.278C411.255 78.278 410.122 78.082 409.171 77.69C408.22 77.298 407.478 76.739 406.947 76.011C406.443 75.256 406.191 74.36 406.191 73.325C406.191 72.57 406.345 71.884 406.653 71.269C406.988 70.653 407.492 70.094 408.164 69.59C408.863 69.058 409.772 68.569 410.892 68.121C411.871 67.757 413.004 67.421 414.291 67.114C415.578 66.806 417.271 66.47 419.369 66.106C420.718 65.855 422.332 65.568 424.212 65.247C424.186 66.045 424.138 66.947 424.07 67.953C423.986 69.576 423.65 71.003 423.063 72.234C422.755 72.877 422.167 73.675 421.3 74.626C420.461 75.577 419.314 76.431 417.859 77.186Z" fill="#010101"/>
<path fill-rule="evenodd" clip-rule="evenodd" d="M45.9365 41H14.9365V54.5C14.9365 74.658 31.2781 91 51.4365 91C71.595 91 87.937 74.658 87.937 54.5V41H55.9365V19.5C55.9365 10.9396 48.9969 4 40.4365 4C31.8761 4 24.9365 10.9396 24.9365 19.5H34.9365C34.9365 16.4624 37.399 14 40.4365 14C43.4741 14 45.9365 16.4624 45.9365 19.5V41ZM45.9365 51V70H55.9365V51H77.937V54.5C77.937 69.136 66.072 81 51.4365 81C36.801 81 24.9365 69.136 24.9365 54.5V51H45.9365Z" fill="#010101"/>
</g>
<defs>
<clipPath id="clip0_11_2">
<rect width="450" height="94" fill="white"/>
</clipPath>
</defs>
</svg>
