<svg width="463" height="109" viewBox="0 0 463 109" fill="none" xmlns="http://www.w3.org/2000/svg">
<g clip-path="url(#clip0_64_60)">
<path d="M6.39746 70.7929L38.5445 56.4834L57.0478 67.2151L60.7858 102.422L37.9839 102.235L41.348 77.7579L37.4231 75.4987L18.1722 90.5614L6.39746 70.7929Z" fill="#010101"/>
<path d="M59.1048 65.7078L87.5143 86.6057L98.7282 66.4609L75.9255 57.2354V52.7169L98.7282 43.3031L87.5143 23.346L59.1048 44.2445V65.7078Z" fill="#010101"/>
<path d="M57.0478 42.5507L60.7858 7.34335L37.9839 7.71992L41.348 32.1956L37.4231 34.4548L17.9853 19.393L6.39746 38.9735L38.5445 53.2824L57.0478 42.5507Z" fill="#010101"/>
<path d="M174.8 50.6635V83.6484H187.072V41.6124H169.2V50.6635H174.8Z" fill="#010101"/>
<path d="M174.416 35.7062C175.541 36.8821 177.254 37.47 179.555 37.47C181.857 37.47 183.543 36.8821 184.617 35.7062C185.743 34.4783 186.304 32.9441 186.304 31.1036C186.304 29.2113 185.743 27.6771 184.617 26.5012C183.543 25.2739 181.857 24.6601 179.555 24.6601C177.254 24.6601 175.541 25.2739 174.416 26.5012C173.343 27.6771 172.806 29.2113 172.806 31.1036C172.806 32.9441 173.343 34.4783 174.416 35.7062Z" fill="#010101"/>
<path d="M132.078 82.7272C135.555 84.3123 139.825 85.1055 144.886 85.1055C149.642 85.1055 153.732 84.363 157.159 82.8806C160.585 81.3981 163.218 79.3265 165.059 76.667C166.951 73.9568 167.897 70.8119 167.897 67.2322C167.897 63.755 167.003 60.8146 165.213 58.4109C163.474 55.9565 161.046 54.0388 157.926 52.6584C154.806 51.2261 151.202 50.3312 147.111 49.9736L142.816 49.5901C140.259 49.3851 138.418 48.6952 137.293 47.5186C136.168 46.3426 135.606 44.9617 135.606 43.3769C135.606 42.1491 135.913 41.0243 136.525 40.0016C137.14 38.9276 138.06 38.0839 139.287 37.47C140.566 36.8568 142.125 36.5498 143.966 36.5498C145.908 36.5498 147.52 36.9073 148.798 37.6239C149.08 37.7751 149.347 37.9369 149.598 38.1086L149.659 38.1512C149.752 38.2161 149.845 38.2835 149.935 38.3514C150.712 38.9449 151.33 39.6483 151.79 40.4618C152.454 41.587 152.788 42.8395 152.788 44.2206H165.059C165.059 40.5383 164.215 37.3422 162.528 34.6321C160.841 31.8707 158.412 29.7487 155.242 28.2651C152.122 26.7309 148.364 25.9639 143.966 25.9639C139.773 25.9639 136.143 26.6803 133.074 28.1119C130.007 29.493 127.603 31.4872 125.865 34.0947C124.176 36.703 123.333 39.7972 123.333 43.3769C123.333 48.337 124.996 52.3255 128.319 55.3431C131.643 58.3602 136.092 60.0988 141.665 60.5589L145.884 60.9424C149.309 61.2494 151.79 61.9398 153.324 63.0133C154.857 64.036 155.625 65.4423 155.625 67.2322C155.625 68.0549 155.49 68.8262 155.221 69.5471C155.02 70.0821 154.747 70.5889 154.398 71.0679C153.579 72.1411 152.378 72.9849 150.793 73.5994C149.208 74.2127 147.239 74.5193 144.886 74.5193C142.279 74.5193 140.156 74.162 138.521 73.4449C136.884 72.6783 135.658 71.6811 134.838 70.4546C134.071 69.2265 133.689 67.8974 133.689 66.4651H121.493C121.493 70.0961 122.387 73.3182 124.176 76.1297C125.967 78.8919 128.601 81.0915 132.078 82.7272Z" fill="#010101"/>
<path d="M214.453 84.1843C210.209 84.1843 206.783 83.6737 204.176 82.6499C201.567 81.5768 199.65 79.8118 198.423 77.3575C197.247 74.8513 196.659 71.4771 196.659 67.2321V50.5868H190.293V41.6124H196.659V30.26H208.087V41.6124H220.36V50.5868H208.087V67.693C208.087 69.6872 208.599 71.2212 209.621 72.2944C210.694 73.3181 212.203 73.8288 214.147 73.8288H220.36V84.1843H214.453Z" fill="#010101"/>
<path fill-rule="evenodd" clip-rule="evenodd" d="M235.135 83.2645C237.896 84.491 241.067 85.1055 244.646 85.1055C248.174 85.1055 251.294 84.491 254.004 83.2645C256.714 82.0367 258.964 80.3236 260.753 78.1253C262.543 75.9257 263.746 73.4195 264.358 70.6079H253.083C252.572 71.8864 251.601 72.9596 250.169 73.8288C248.737 74.698 246.895 75.1338 244.646 75.1338C243.253 75.1338 242.007 74.9678 240.91 74.6384C240.075 74.3875 239.326 74.0416 238.664 73.5994C237.13 72.5769 236.004 71.1439 235.289 69.3036C235.09 68.7793 234.92 68.2308 234.777 67.6597C234.631 67.0809 234.513 66.4788 234.425 65.8518H265.125V61.7095C265.125 57.8741 264.307 54.3457 262.671 51.1242C261.034 47.8509 258.656 45.2174 255.538 43.223C252.47 41.1775 248.685 40.1548 244.185 40.1548C240.759 40.1548 237.691 40.7686 234.981 41.9959C232.324 43.1718 230.099 44.7825 228.309 46.8282C226.52 48.8737 225.139 51.2009 224.166 53.8089C223.246 56.3653 222.786 59.0501 222.786 61.8627V63.3968C222.786 66.1075 223.246 68.7664 224.166 71.3745C225.139 73.9314 226.52 76.2577 228.309 78.3547C230.15 80.4009 232.424 82.0367 235.135 83.2645ZM234.636 58.2669C234.67 58.1045 234.706 57.9446 234.745 57.7871C234.852 57.3535 234.974 56.9378 235.114 56.5407C235.192 56.3147 235.276 56.0942 235.366 55.8798C236.132 53.9875 237.257 52.5558 238.74 51.5844C239.295 51.2211 239.895 50.9259 240.54 50.6987C241.625 50.3176 242.841 50.1268 244.185 50.1268C246.283 50.1268 248.02 50.6128 249.401 51.5844C250.833 52.5046 251.907 53.8596 252.623 55.6495C252.681 55.794 252.736 55.941 252.789 56.0899C252.874 56.3269 252.953 56.5703 253.026 56.8198C253.134 57.1911 253.229 57.5752 253.312 57.9723C253.373 58.265 253.425 58.5647 253.472 58.8716H234.518C234.554 58.6665 234.593 58.4652 234.636 58.2669Z" fill="#010101"/>
<path d="M270.189 83.6484V41.6124H279.931V52.1996C280.063 51.5701 280.214 50.9661 280.382 50.3868C280.527 49.8989 280.681 49.4283 280.851 48.9762C281.925 46.1123 283.536 43.9649 285.683 42.5326C287.831 41.0497 290.463 40.3086 293.584 40.3086H294.12C297.291 40.3086 299.924 41.0497 302.021 42.5326C304.168 43.9649 305.78 46.1123 306.853 48.9762L306.938 49.1924L307.01 49.39C307.058 49.2504 307.109 49.1127 307.159 48.9762C308.284 46.1123 309.921 43.9649 312.069 42.5326C314.216 41.0497 316.85 40.3086 319.97 40.3086H320.507C323.675 40.3086 326.335 41.0497 328.482 42.5326C330.682 43.9649 332.344 46.1123 333.468 48.9762C334.593 51.8401 335.157 55.4198 335.157 59.7153V83.6484H322.884V59.0248C322.884 56.7235 322.27 54.8571 321.043 53.4254C319.867 51.9932 318.179 51.2774 315.981 51.2774C313.782 51.2774 312.043 52.0191 310.765 53.5021C309.487 54.9337 308.847 56.8514 308.847 59.2551V83.6484H296.498V59.0248C296.498 56.7235 295.885 54.8571 294.657 53.4254C293.481 51.9932 291.819 51.2774 289.673 51.2774C287.421 51.2774 285.658 52.0191 284.379 53.5021C283.101 54.9337 282.461 56.8514 282.461 59.2551V83.6484H270.189Z" fill="#010101"/>
<path fill-rule="evenodd" clip-rule="evenodd" d="M367.938 75.5482V83.6484H377.678V57.8742C377.678 53.9875 376.912 50.8173 375.377 48.3623C373.843 45.8566 371.594 43.9901 368.628 42.763C365.714 41.5357 362.109 40.9218 357.814 40.9218C356.882 40.9218 355.911 40.9317 354.897 40.9521C354.299 40.9645 353.685 40.9799 353.057 40.9985C351.37 41.0497 349.733 41.1263 348.149 41.2289L346.938 41.3103C346.316 41.3535 345.732 41.3962 345.182 41.4394C344.769 41.4715 344.377 41.5037 344.008 41.5357V51.8913C345.593 51.7888 347.356 51.6863 349.3 51.5844C349.843 51.5559 350.382 51.5294 350.916 51.5047C351.689 51.4689 352.451 51.4379 353.204 51.4108C353.8 51.3892 354.39 51.37 354.976 51.3539C356.815 51.3027 358.299 51.2774 359.424 51.2774C361.674 51.2774 363.31 51.8141 364.333 52.8882C365.356 53.9621 365.866 55.5729 365.866 57.721V57.8742H358.274C354.541 57.8742 351.243 58.3602 348.379 59.3318C345.515 60.252 343.29 61.7095 341.707 63.7038C340.121 65.6475 339.329 68.1531 339.329 71.2212C339.329 74.034 339.967 76.463 341.246 78.5093C342.524 80.5023 344.288 82.0367 346.538 83.1099C348.84 84.1844 351.499 84.7216 354.514 84.7216C357.43 84.7216 359.884 84.1844 361.879 83.1099C363.924 82.0367 365.509 80.5023 366.634 78.5093C366.832 78.1722 367.017 77.8238 367.189 77.4614C367.432 76.9495 367.649 76.411 367.84 75.8459L367.938 75.5482ZM365.866 68.0765V64.7012H358.196C356.049 64.7012 354.388 65.238 353.212 66.312C352.087 67.3348 351.523 68.7411 351.523 70.5307C351.523 71.3733 351.664 72.1386 351.944 72.8291C352.226 73.5209 352.648 74.1354 353.212 74.6726C354.388 75.6964 356.049 76.207 358.196 76.207C358.605 76.207 359.001 76.1868 359.382 76.1475C359.694 76.1145 359.997 76.0677 360.289 76.0081C360.852 75.8941 361.383 75.7294 361.879 75.5165C363.004 75.0059 363.924 74.162 364.639 72.9849C365.356 71.8091 365.765 70.1721 365.866 68.0765Z" fill="#010101"/>
<path d="M385.023 83.6484V41.6124H394.764V55.487C395.231 51.5262 396.408 48.3327 398.293 45.9079C400.85 42.6865 404.53 41.0757 409.338 41.0757H410.949V51.6609H407.88C404.506 51.6609 401.897 52.5812 400.057 54.4223C398.216 56.2122 397.295 58.8204 397.295 62.2462V83.6484H385.023Z" fill="#010101"/>
<path d="M426.511 64.0107H430.576L443.845 83.6484H457.651L440.826 59.5312L454.66 41.6124H441.775L426.511 61.5996V27.6518H414.239V83.6484H426.511V64.0107Z" fill="#010101"/>
</g>
<defs>
<clipPath id="clip0_64_60">
<rect width="463" height="109" fill="white"/>
</clipPath>
</defs>
</svg>
