<svg width="419" height="62" viewBox="0 0 419 62" fill="none" xmlns="http://www.w3.org/2000/svg">
<path d="M80.788 29.134H101.794V54.298H93.532L93.046 48.412C92.02 50.032 90.778 51.382 89.212 52.462C86.674 54.19 83.326 55 79.276 55C75.118 55 71.446 54.082 68.206 52.246C64.966 50.41 62.482 47.71 60.646 44.146C58.864 40.528 58 36.154 58 31.024C58 25.948 58.918 21.628 60.808 18.064C62.698 14.5 65.398 11.692 68.908 9.802C72.418 7.858 76.576 6.886 81.328 6.886C86.62 6.886 90.886 7.858 94.18 9.748C97.42 11.638 99.958 14.716 101.74 18.82L90.454 23.302C89.86 20.872 88.78 19.144 87.214 18.064C85.648 16.984 83.704 16.444 81.436 16.444C79.114 16.444 77.116 16.984 75.442 18.118C73.822 19.198 72.58 20.818 71.716 22.978C70.852 25.138 70.42 27.784 70.42 30.97C70.42 34.264 70.852 37.018 71.77 39.232C72.634 41.446 73.93 43.12 75.658 44.146C77.386 45.226 79.492 45.766 82.03 45.766C83.434 45.766 84.676 45.604 85.81 45.28C86.944 44.902 87.916 44.416 88.78 43.822C89.644 43.174 90.292 42.364 90.778 41.392C91.21 40.42 91.48 39.286 91.48 37.936L95.422 38.368C95.638 38.368 95.854 38.206 95.854 37.99V37.666C95.854 37.45 95.638 37.234 95.422 37.234H91.48H80.788V29.134ZM130.43 27.892C131.618 26.974 132.212 25.462 132.212 23.356C132.212 21.358 131.618 19.846 130.43 18.928C129.296 17.956 127.514 17.524 125.138 17.524H121.952H116.498H111.908C111.692 17.524 111.476 17.686 111.476 17.902V18.226C111.476 18.442 111.692 18.604 111.908 18.604L116.498 18.064V26.434L116.39 33.94C116.39 34.156 116.552 34.372 116.768 34.372H117.092C117.308 34.372 117.524 34.156 117.47 33.94L117.038 29.296H125.138C127.514 29.296 129.296 28.864 130.43 27.892ZM135.02 36.1L147.224 55H133.778L123.788 37.936H116.498V55H104.564V8.29H126.866C132.428 8.29 136.748 9.586 139.826 12.232C142.904 14.824 144.47 18.334 144.47 22.654C144.47 27.46 142.958 31.078 139.88 33.562C138.53 34.696 136.856 35.506 135.02 36.1ZM172.865 16.444C170.597 16.444 168.707 16.984 167.141 18.064C165.575 19.144 164.387 20.764 163.631 22.924C162.821 25.084 162.389 27.73 162.389 30.97C162.389 34.102 162.821 36.802 163.631 38.962C164.387 41.122 165.575 42.742 167.141 43.822C168.707 44.902 170.597 45.442 172.865 45.442C175.133 45.442 177.023 44.902 178.589 43.822C180.101 42.742 181.289 41.122 182.099 38.962C182.909 36.802 183.287 34.102 183.287 30.97C183.287 27.73 182.909 25.084 182.099 22.924C181.289 20.764 180.101 19.144 178.589 18.064C177.023 16.984 175.133 16.444 172.865 16.444ZM172.865 6.886C177.617 6.886 181.667 7.858 185.123 9.748C188.525 11.638 191.171 14.392 193.007 18.01C194.843 21.574 195.761 25.894 195.761 30.97C195.761 35.992 194.843 40.312 193.007 43.93C191.171 47.494 188.525 50.248 185.123 52.138C181.667 54.082 177.617 55 172.865 55C168.167 55 164.063 54.082 160.661 52.138C157.205 50.248 154.559 47.494 152.723 43.93C150.887 40.312 149.969 35.992 149.969 30.97C149.969 25.894 150.887 21.574 152.723 18.01C154.559 14.392 157.205 11.638 160.661 9.748C164.063 7.858 168.167 6.886 172.865 6.886ZM255.076 8.29H267.658L254.104 55H240.874L235.366 32.374L233.206 20.98H233.098L231.046 32.374L225.592 55H211.93L198.484 8.29H211.39L218.68 42.04L220.138 49.114C220.192 49.33 220.408 49.492 220.624 49.438L220.948 49.33C221.164 49.222 221.272 49.006 221.218 48.79L219.598 43.984L227.698 8.29H238.768L247.03 43.876L245.41 48.79C245.356 49.006 245.464 49.222 245.68 49.33L246.004 49.438C246.22 49.492 246.436 49.33 246.49 49.114L247.3 45.118L255.076 8.29ZM306.649 17.686H287.749H277.651C277.435 17.686 277.273 17.902 277.273 18.118V18.442C277.273 18.658 277.489 18.82 277.705 18.82L282.511 18.28V27.622H301.789V37.018H282.511V55H270.361V8.29H306.649V17.686ZM326.611 45.604H344.971V55H309.385V8.29H321.535V45.118L316.567 44.632C316.351 44.578 316.135 44.74 316.135 44.956V45.28C316.135 45.496 316.351 45.712 316.567 45.712L326.611 45.604ZM359.873 8.29V55H347.723V8.29H359.873ZM392.292 31.186L408.222 55H393.696L385.11 40.366L385.218 36.316C385.218 36.1 385.056 35.938 384.84 35.938H384.516C384.3 35.884 384.138 36.1 384.138 36.316L384.462 40.852L376.416 55H362.646L378.468 31.51L363.564 8.29H377.928L385.596 22.006L385.326 25.516C385.272 25.732 385.434 25.948 385.704 25.948L385.974 26.002C386.244 26.002 386.406 25.84 386.406 25.624L386.298 21.952L393.966 8.29H407.25L392.292 31.186Z" fill="#E5E5E5"/>
<path d="M47.5961 8.94238H26.0576V53.5578H47.5961V8.94238Z" fill="#E5E5E5"/>
<path d="M23.5577 29.1345H2.01929V53.5576H23.5577V29.1345Z" fill="#E5E5E5"/>
</svg>
